<svg width="26" height="57" viewBox="0 0 26 57" fill="none" xmlns="http://www.w3.org/2000/svg">
<g clip-path="url(#clip0_4047_1854)">
<path d="M20.7852 52.0206H20.5859V46.0113H20.7852V52.0206Z" fill="black"/>
<path d="M22.9036 52.6301H21.3739C21.0353 52.6301 20.7607 52.3573 20.7607 52.0207V46.1637C20.7607 45.8271 21.0353 45.5543 21.3739 45.5543H22.9036C23.2423 45.5543 23.5168 45.8271 23.5168 46.1637V52.0207C23.5168 52.3573 23.2423 52.6301 22.9036 52.6301Z" fill="url(#paint0_linear_4047_1854)"/>
<g style="mix-blend-mode:multiply">
<path d="M20.7607 52.0206H21.4628V52.432H20.9232C20.8221 52.3223 20.7607 52.1791 20.7607 52.0206Z" fill="#636363"/>
</g>
<g style="mix-blend-mode:multiply">
<path d="M21.4628 51.4447H20.6841V51.0333H21.4628V51.4447Z" fill="#636363"/>
</g>
<g style="mix-blend-mode:multiply">
<path d="M21.4628 50.4574H20.6841V50.046H21.4628V50.4574Z" fill="#636363"/>
</g>
<g style="mix-blend-mode:multiply">
<path d="M21.4628 49.47H20.6841V49.0586H21.4628V49.47Z" fill="#636363"/>
</g>
<g style="mix-blend-mode:multiply">
<path d="M21.4628 48.4857H20.6841V48.0743H21.4628V48.4857Z" fill="#636363"/>
</g>
<g style="mix-blend-mode:multiply">
<path d="M21.4628 47.4984H20.6841V47.087H21.4628V47.4984Z" fill="#636363"/>
</g>
<g style="mix-blend-mode:multiply">
<path d="M21.4628 46.5111H20.6841V46.0997H21.4628V46.5111Z" fill="#636363"/>
</g>
<g style="mix-blend-mode:multiply">
<path d="M22.738 52.432V52.0206H23.5167C23.5167 52.1791 23.4523 52.3223 23.3542 52.432H22.738Z" fill="#636363"/>
</g>
<g style="mix-blend-mode:multiply">
<path d="M23.5167 51.4447H22.738V51.0333H23.5167V51.4447Z" fill="#636363"/>
</g>
<g style="mix-blend-mode:multiply">
<path d="M23.5167 50.4574H22.738V50.046H23.5167V50.4574Z" fill="#636363"/>
</g>
<g style="mix-blend-mode:multiply">
<path d="M23.5167 49.47H22.738V49.0586H23.5167V49.47Z" fill="#636363"/>
</g>
<g style="mix-blend-mode:multiply">
<path d="M23.5167 48.4857H22.738V48.0743H23.5167V48.4857Z" fill="#636363"/>
</g>
<g style="mix-blend-mode:multiply">
<path d="M23.5167 47.4984H22.738V47.087H23.5167V47.4984Z" fill="#636363"/>
</g>
<g style="mix-blend-mode:multiply">
<path d="M23.5167 46.5111H22.738V46.0997H23.5167V46.5111Z" fill="#636363"/>
</g>
<g style="mix-blend-mode:multiply">
<path d="M22.5297 51.8835H21.751V51.4722H22.5297V51.8835Z" fill="#636363"/>
</g>
<g style="mix-blend-mode:multiply">
<path d="M22.5297 50.8962H21.751V50.4849H22.5297V50.8962Z" fill="#636363"/>
</g>
<g style="mix-blend-mode:multiply">
<path d="M22.5297 49.9089H21.751V49.4975H22.5297V49.9089Z" fill="#636363"/>
</g>
<g style="mix-blend-mode:multiply">
<path d="M22.5297 48.9246H21.751V48.5132H22.5297V48.9246Z" fill="#636363"/>
</g>
<g style="mix-blend-mode:multiply">
<path d="M22.5297 47.9373H21.751V47.5259H22.5297V47.9373Z" fill="#636363"/>
</g>
<g style="mix-blend-mode:multiply">
<path d="M22.5297 46.95H21.751V46.5386H22.5297V46.95Z" fill="#636363"/>
</g>
<g style="mix-blend-mode:screen">
<g style="mix-blend-mode:multiply">
<path d="M22.5297 52.432H21.751V52.0206H22.5297V52.432Z" fill="#636363"/>
</g>
<g style="mix-blend-mode:multiply">
<path d="M22.5297 51.4447H21.751V51.0333H22.5297V51.4447Z" fill="#636363"/>
</g>
<g style="mix-blend-mode:multiply">
<path d="M22.5297 50.4574H21.751V50.046H22.5297V50.4574Z" fill="#636363"/>
</g>
<g style="mix-blend-mode:multiply">
<path d="M22.5297 49.47H21.751V49.0586H22.5297V49.47Z" fill="#636363"/>
</g>
<g style="mix-blend-mode:multiply">
<path d="M22.5297 48.4857H21.751V48.0743H22.5297V48.4857Z" fill="#636363"/>
</g>
<g style="mix-blend-mode:multiply">
<path d="M22.5297 47.4984H21.751V47.087H22.5297V47.4984Z" fill="#636363"/>
</g>
<g style="mix-blend-mode:multiply">
<path d="M22.5297 46.5111H21.751V46.0997H22.5297V46.5111Z" fill="#636363"/>
</g>
</g>
<g style="mix-blend-mode:screen">
<g style="mix-blend-mode:multiply">
<path d="M23.5167 51.8835H22.738V51.4722H23.5167V51.8835Z" fill="#636363"/>
</g>
<g style="mix-blend-mode:multiply">
<path d="M23.5167 50.8962H22.738V50.4849H23.5167V50.8962Z" fill="#636363"/>
</g>
<g style="mix-blend-mode:multiply">
<path d="M23.5167 49.9089H22.738V49.4975H23.5167V49.9089Z" fill="#636363"/>
</g>
<g style="mix-blend-mode:multiply">
<path d="M23.5167 48.9246H22.738V48.5132H23.5167V48.9246Z" fill="#636363"/>
</g>
<g style="mix-blend-mode:multiply">
<path d="M23.5167 47.9373H22.738V47.5259H23.5167V47.9373Z" fill="#636363"/>
</g>
<g style="mix-blend-mode:multiply">
<path d="M23.5167 46.95H22.738V46.5386H23.5167V46.95Z" fill="#636363"/>
</g>
</g>
<g style="mix-blend-mode:screen">
<g style="mix-blend-mode:multiply">
<path d="M21.4628 51.8835H20.6841V51.4722H21.4628V51.8835Z" fill="#636363"/>
</g>
<g style="mix-blend-mode:multiply">
<path d="M21.4628 50.8962H20.6841V50.4849H21.4628V50.8962Z" fill="#636363"/>
</g>
<g style="mix-blend-mode:multiply">
<path d="M21.4628 49.9089H20.6841V49.4975H21.4628V49.9089Z" fill="#636363"/>
</g>
<g style="mix-blend-mode:multiply">
<path d="M21.4628 48.9246H20.6841V48.5132H21.4628V48.9246Z" fill="#636363"/>
</g>
<g style="mix-blend-mode:multiply">
<path d="M21.4628 47.9373H20.6841V47.5259H21.4628V47.9373Z" fill="#636363"/>
</g>
<g style="mix-blend-mode:multiply">
<path d="M21.4628 46.95H20.6841V46.5386H21.4628V46.95Z" fill="#636363"/>
</g>
</g>
<path d="M19.9727 52.6301H18.443C18.1043 52.6301 17.8298 52.3573 17.8298 52.0207V46.1637C17.8298 45.8271 18.1043 45.5543 18.443 45.5543H19.9727C20.3114 45.5543 20.5859 45.8271 20.5859 46.1637V52.0207C20.5859 52.3573 20.3114 52.6301 19.9727 52.6301Z" fill="url(#paint1_linear_4047_1854)"/>
<g style="mix-blend-mode:multiply">
<path d="M17.8298 52.0206H18.5319V52.432H17.9923C17.8911 52.3223 17.8298 52.1791 17.8298 52.0206Z" fill="#636363"/>
</g>
<g style="mix-blend-mode:multiply">
<path d="M18.5289 51.4447H17.7502V51.0333H18.5289V51.4447Z" fill="#636363"/>
</g>
<g style="mix-blend-mode:multiply">
<path d="M18.5289 50.4574H17.7502V50.046H18.5289V50.4574Z" fill="#636363"/>
</g>
<g style="mix-blend-mode:multiply">
<path d="M18.5289 49.47H17.7502V49.0586H18.5289V49.47Z" fill="#636363"/>
</g>
<g style="mix-blend-mode:multiply">
<path d="M18.5289 48.4857H17.7502V48.0743H18.5289V48.4857Z" fill="#636363"/>
</g>
<g style="mix-blend-mode:multiply">
<path d="M18.5289 47.4984H17.7502V47.087H18.5289V47.4984Z" fill="#636363"/>
</g>
<g style="mix-blend-mode:multiply">
<path d="M18.5289 46.5111H17.7502V46.0997H18.5289V46.5111Z" fill="#636363"/>
</g>
<g style="mix-blend-mode:multiply">
<path d="M19.8042 52.432V52.0206H20.5829C20.5829 52.1791 20.5216 52.3223 20.4204 52.432H19.8042Z" fill="#636363"/>
</g>
<g style="mix-blend-mode:multiply">
<path d="M20.5829 51.4447H19.8042V51.0333H20.5829V51.4447Z" fill="#636363"/>
</g>
<g style="mix-blend-mode:multiply">
<path d="M20.5829 50.4574H19.8042V50.046H20.5829V50.4574Z" fill="#636363"/>
</g>
<g style="mix-blend-mode:multiply">
<path d="M20.5829 49.47H19.8042V49.0586H20.5829V49.47Z" fill="#636363"/>
</g>
<g style="mix-blend-mode:multiply">
<path d="M20.5829 48.4857H19.8042V48.0743H20.5829V48.4857Z" fill="#636363"/>
</g>
<g style="mix-blend-mode:multiply">
<path d="M20.5829 47.4984H19.8042V47.087H20.5829V47.4984Z" fill="#636363"/>
</g>
<g style="mix-blend-mode:multiply">
<path d="M20.5829 46.5111H19.8042V46.0997H20.5829V46.5111Z" fill="#636363"/>
</g>
<g style="mix-blend-mode:multiply">
<path d="M19.5958 51.8835H18.8171V51.4722H19.5958V51.8835Z" fill="#636363"/>
</g>
<g style="mix-blend-mode:multiply">
<path d="M19.5958 50.8962H18.8171V50.4849H19.5958V50.8962Z" fill="#636363"/>
</g>
<g style="mix-blend-mode:multiply">
<path d="M19.5958 49.9089H18.8171V49.4975H19.5958V49.9089Z" fill="#636363"/>
</g>
<g style="mix-blend-mode:multiply">
<path d="M19.5958 48.9246H18.8171V48.5132H19.5958V48.9246Z" fill="#636363"/>
</g>
<g style="mix-blend-mode:multiply">
<path d="M19.5958 47.9373H18.8171V47.5259H19.5958V47.9373Z" fill="#636363"/>
</g>
<g style="mix-blend-mode:multiply">
<path d="M19.5958 46.95H18.8171V46.5386H19.5958V46.95Z" fill="#636363"/>
</g>
<g style="mix-blend-mode:screen">
<g style="mix-blend-mode:multiply">
<path d="M19.5958 52.432H18.8171V52.0206H19.5958V52.432Z" fill="#636363"/>
</g>
<g style="mix-blend-mode:multiply">
<path d="M19.5958 51.4447H18.8171V51.0333H19.5958V51.4447Z" fill="#636363"/>
</g>
<g style="mix-blend-mode:multiply">
<path d="M19.5958 50.4574H18.8171V50.046H19.5958V50.4574Z" fill="#636363"/>
</g>
<g style="mix-blend-mode:multiply">
<path d="M19.5958 49.47H18.8171V49.0586H19.5958V49.47Z" fill="#636363"/>
</g>
<g style="mix-blend-mode:multiply">
<path d="M19.5958 48.4857H18.8171V48.0743H19.5958V48.4857Z" fill="#636363"/>
</g>
<g style="mix-blend-mode:multiply">
<path d="M19.5958 47.4984H18.8171V47.087H19.5958V47.4984Z" fill="#636363"/>
</g>
<g style="mix-blend-mode:multiply">
<path d="M19.5958 46.5111H18.8171V46.0997H19.5958V46.5111Z" fill="#636363"/>
</g>
</g>
<g style="mix-blend-mode:screen">
<g style="mix-blend-mode:multiply">
<path d="M20.5829 51.8835H19.8042V51.4722H20.5829V51.8835Z" fill="#636363"/>
</g>
<g style="mix-blend-mode:multiply">
<path d="M20.5829 50.8962H19.8042V50.4849H20.5829V50.8962Z" fill="#636363"/>
</g>
<g style="mix-blend-mode:multiply">
<path d="M20.5829 49.9089H19.8042V49.4975H20.5829V49.9089Z" fill="#636363"/>
</g>
<g style="mix-blend-mode:multiply">
<path d="M20.5829 48.9246H19.8042V48.5132H20.5829V48.9246Z" fill="#636363"/>
</g>
<g style="mix-blend-mode:multiply">
<path d="M20.5829 47.9373H19.8042V47.5259H20.5829V47.9373Z" fill="#636363"/>
</g>
<g style="mix-blend-mode:multiply">
<path d="M20.5829 46.95H19.8042V46.5386H20.5829V46.95Z" fill="#636363"/>
</g>
</g>
<g style="mix-blend-mode:screen">
<g style="mix-blend-mode:multiply">
<path d="M18.5289 51.8835H17.7502V51.4722H18.5289V51.8835Z" fill="#636363"/>
</g>
<g style="mix-blend-mode:multiply">
<path d="M18.5289 50.8962H17.7502V50.4849H18.5289V50.8962Z" fill="#636363"/>
</g>
<g style="mix-blend-mode:multiply">
<path d="M18.5289 49.9089H17.7502V49.4975H18.5289V49.9089Z" fill="#636363"/>
</g>
<g style="mix-blend-mode:multiply">
<path d="M18.5289 48.9246H17.7502V48.5132H18.5289V48.9246Z" fill="#636363"/>
</g>
<g style="mix-blend-mode:multiply">
<path d="M18.5289 47.9373H17.7502V47.5259H18.5289V47.9373Z" fill="#636363"/>
</g>
<g style="mix-blend-mode:multiply">
<path d="M18.5289 46.95H17.7502V46.5386H18.5289V46.95Z" fill="#636363"/>
</g>
</g>
<path d="M5.36797 52.0206H5.1687V46.0113H5.36797V52.0206Z" fill="black"/>
<path d="M4.57699 52.6301H3.04722C2.70859 52.6301 2.43408 52.3573 2.43408 52.0207V46.1637C2.43408 45.8271 2.70859 45.5543 3.04722 45.5543H4.57699C4.91562 45.5543 5.19012 45.8271 5.19012 46.1637V52.0207C5.19012 52.3573 4.91562 52.6301 4.57699 52.6301Z" fill="url(#paint2_linear_4047_1854)"/>
<g style="mix-blend-mode:multiply">
<path d="M5.19008 52.0206H4.48804V52.432H5.0276C5.12876 52.3223 5.19008 52.1791 5.19008 52.0206Z" fill="#636363"/>
</g>
<g style="mix-blend-mode:multiply">
<path d="M5.26672 51.4447H4.48804V51.0333H5.26672V51.4447Z" fill="#636363"/>
</g>
<g style="mix-blend-mode:multiply">
<path d="M5.26672 50.4574H4.48804V50.046H5.26672V50.4574Z" fill="#636363"/>
</g>
<g style="mix-blend-mode:multiply">
<path d="M5.26672 49.47H4.48804V49.0586H5.26672V49.47Z" fill="#636363"/>
</g>
<g style="mix-blend-mode:multiply">
<path d="M5.26672 48.4857H4.48804V48.0743H5.26672V48.4857Z" fill="#636363"/>
</g>
<g style="mix-blend-mode:multiply">
<path d="M5.26672 47.4984H4.48804V47.087H5.26672V47.4984Z" fill="#636363"/>
</g>
<g style="mix-blend-mode:multiply">
<path d="M5.26672 46.5111H4.48804V46.0997H5.26672V46.5111Z" fill="#636363"/>
</g>
<g style="mix-blend-mode:multiply">
<path d="M3.21594 52.432V52.0206H2.43726C2.43726 52.1791 2.50163 52.3223 2.59974 52.432H3.21594Z" fill="#636363"/>
</g>
<g style="mix-blend-mode:multiply">
<path d="M3.21276 51.4447H2.43408V51.0333H3.21276V51.4447Z" fill="#636363"/>
</g>
<g style="mix-blend-mode:multiply">
<path d="M3.21276 50.4574H2.43408V50.046H3.21276V50.4574Z" fill="#636363"/>
</g>
<g style="mix-blend-mode:multiply">
<path d="M3.21276 49.47H2.43408V49.0586H3.21276V49.47Z" fill="#636363"/>
</g>
<g style="mix-blend-mode:multiply">
<path d="M3.21276 48.4857H2.43408V48.0743H3.21276V48.4857Z" fill="#636363"/>
</g>
<g style="mix-blend-mode:multiply">
<path d="M3.21276 47.4984H2.43408V47.087H3.21276V47.4984Z" fill="#636363"/>
</g>
<g style="mix-blend-mode:multiply">
<path d="M3.21276 46.5111H2.43408V46.0997H3.21276V46.5111Z" fill="#636363"/>
</g>
<g style="mix-blend-mode:multiply">
<path d="M4.203 51.8835H3.42432V51.4722H4.203V51.8835Z" fill="#636363"/>
</g>
<g style="mix-blend-mode:multiply">
<path d="M4.203 50.8962H3.42432V50.4849H4.203V50.8962Z" fill="#636363"/>
</g>
<g style="mix-blend-mode:multiply">
<path d="M4.203 49.9089H3.42432V49.4975H4.203V49.9089Z" fill="#636363"/>
</g>
<g style="mix-blend-mode:multiply">
<path d="M4.203 48.9246H3.42432V48.5132H4.203V48.9246Z" fill="#636363"/>
</g>
<g style="mix-blend-mode:multiply">
<path d="M4.203 47.9373H3.42432V47.5259H4.203V47.9373Z" fill="#636363"/>
</g>
<g style="mix-blend-mode:multiply">
<path d="M4.203 46.95H3.42432V46.5386H4.203V46.95Z" fill="#636363"/>
</g>
<g style="mix-blend-mode:screen">
<g style="mix-blend-mode:multiply">
<path d="M4.203 52.432H3.42432V52.0206H4.203V52.432Z" fill="#636363"/>
</g>
<g style="mix-blend-mode:multiply">
<path d="M4.203 51.4447H3.42432V51.0333H4.203V51.4447Z" fill="#636363"/>
</g>
<g style="mix-blend-mode:multiply">
<path d="M4.203 50.4574H3.42432V50.046H4.203V50.4574Z" fill="#636363"/>
</g>
<g style="mix-blend-mode:multiply">
<path d="M4.203 49.47H3.42432V49.0586H4.203V49.47Z" fill="#636363"/>
</g>
<g style="mix-blend-mode:multiply">
<path d="M4.203 48.4857H3.42432V48.0743H4.203V48.4857Z" fill="#636363"/>
</g>
<g style="mix-blend-mode:multiply">
<path d="M4.203 47.4984H3.42432V47.087H4.203V47.4984Z" fill="#636363"/>
</g>
<g style="mix-blend-mode:multiply">
<path d="M4.203 46.5111H3.42432V46.0997H4.203V46.5111Z" fill="#636363"/>
</g>
</g>
<g style="mix-blend-mode:screen">
<g style="mix-blend-mode:multiply">
<path d="M3.21276 51.8835H2.43408V51.4722H3.21276V51.8835Z" fill="#636363"/>
</g>
<g style="mix-blend-mode:multiply">
<path d="M3.21276 50.8962H2.43408V50.4849H3.21276V50.8962Z" fill="#636363"/>
</g>
<g style="mix-blend-mode:multiply">
<path d="M3.21276 49.9089H2.43408V49.4975H3.21276V49.9089Z" fill="#636363"/>
</g>
<g style="mix-blend-mode:multiply">
<path d="M3.21276 48.9246H2.43408V48.5132H3.21276V48.9246Z" fill="#636363"/>
</g>
<g style="mix-blend-mode:multiply">
<path d="M3.21276 47.9373H2.43408V47.5259H3.21276V47.9373Z" fill="#636363"/>
</g>
<g style="mix-blend-mode:multiply">
<path d="M3.21276 46.95H2.43408V46.5386H3.21276V46.95Z" fill="#636363"/>
</g>
</g>
<g style="mix-blend-mode:screen">
<g style="mix-blend-mode:multiply">
<path d="M5.26672 51.8835H4.48804V51.4722H5.26672V51.8835Z" fill="#636363"/>
</g>
<g style="mix-blend-mode:multiply">
<path d="M5.26672 50.8962H4.48804V50.4849H5.26672V50.8962Z" fill="#636363"/>
</g>
<g style="mix-blend-mode:multiply">
<path d="M5.26672 49.9089H4.48804V49.4975H5.26672V49.9089Z" fill="#636363"/>
</g>
<g style="mix-blend-mode:multiply">
<path d="M5.26672 48.9246H4.48804V48.5132H5.26672V48.9246Z" fill="#636363"/>
</g>
<g style="mix-blend-mode:multiply">
<path d="M5.26672 47.9373H4.48804V47.5259H5.26672V47.9373Z" fill="#636363"/>
</g>
<g style="mix-blend-mode:multiply">
<path d="M5.26672 46.95H4.48804V46.5386H5.26672V46.95Z" fill="#636363"/>
</g>
</g>
<path d="M7.51083 52.6301H5.98106C5.64243 52.6301 5.36792 52.3573 5.36792 52.0207V46.1637C5.36792 45.8271 5.64243 45.5543 5.98106 45.5543H7.51083C7.84945 45.5543 8.12396 45.8271 8.12396 46.1637V52.0207C8.12396 52.3573 7.84945 52.6301 7.51083 52.6301Z" fill="url(#paint3_linear_4047_1854)"/>
<g style="mix-blend-mode:multiply">
<path d="M8.12392 52.0206H7.42188V52.432H7.96143C8.0626 52.3223 8.12392 52.1791 8.12392 52.0206Z" fill="#636363"/>
</g>
<g style="mix-blend-mode:multiply">
<path d="M8.20056 51.4447H7.42188V51.0333H8.20056V51.4447Z" fill="#636363"/>
</g>
<g style="mix-blend-mode:multiply">
<path d="M8.20056 50.4574H7.42188V50.046H8.20056V50.4574Z" fill="#636363"/>
</g>
<g style="mix-blend-mode:multiply">
<path d="M8.20056 49.47H7.42188V49.0586H8.20056V49.47Z" fill="#636363"/>
</g>
<g style="mix-blend-mode:multiply">
<path d="M8.20056 48.4857H7.42188V48.0743H8.20056V48.4857Z" fill="#636363"/>
</g>
<g style="mix-blend-mode:multiply">
<path d="M8.20056 47.4984H7.42188V47.087H8.20056V47.4984Z" fill="#636363"/>
</g>
<g style="mix-blend-mode:multiply">
<path d="M8.20056 46.5111H7.42188V46.0997H8.20056V46.5111Z" fill="#636363"/>
</g>
<g style="mix-blend-mode:multiply">
<path d="M6.1466 52.432V52.0206H5.36792C5.36792 52.1791 5.42923 52.3223 5.5304 52.432H6.1466Z" fill="#636363"/>
</g>
<g style="mix-blend-mode:multiply">
<path d="M6.1466 51.4447H5.36792V51.0333H6.1466V51.4447Z" fill="#636363"/>
</g>
<g style="mix-blend-mode:multiply">
<path d="M6.1466 50.4574H5.36792V50.046H6.1466V50.4574Z" fill="#636363"/>
</g>
<g style="mix-blend-mode:multiply">
<path d="M6.1466 49.47H5.36792V49.0586H6.1466V49.47Z" fill="#636363"/>
</g>
<g style="mix-blend-mode:multiply">
<path d="M6.1466 48.4857H5.36792V48.0743H6.1466V48.4857Z" fill="#636363"/>
</g>
<g style="mix-blend-mode:multiply">
<path d="M6.1466 47.4984H5.36792V47.087H6.1466V47.4984Z" fill="#636363"/>
</g>
<g style="mix-blend-mode:multiply">
<path d="M6.1466 46.5111H5.36792V46.0997H6.1466V46.5111Z" fill="#636363"/>
</g>
<g style="mix-blend-mode:multiply">
<path d="M7.13366 51.8835H6.35498V51.4722H7.13366V51.8835Z" fill="#636363"/>
</g>
<g style="mix-blend-mode:multiply">
<path d="M7.13366 50.8962H6.35498V50.4849H7.13366V50.8962Z" fill="#636363"/>
</g>
<g style="mix-blend-mode:multiply">
<path d="M7.13366 49.9089H6.35498V49.4975H7.13366V49.9089Z" fill="#636363"/>
</g>
<g style="mix-blend-mode:multiply">
<path d="M7.13366 48.9246H6.35498V48.5132H7.13366V48.9246Z" fill="#636363"/>
</g>
<g style="mix-blend-mode:multiply">
<path d="M7.13366 47.9373H6.35498V47.5259H7.13366V47.9373Z" fill="#636363"/>
</g>
<g style="mix-blend-mode:multiply">
<path d="M7.13366 46.95H6.35498V46.5386H7.13366V46.95Z" fill="#636363"/>
</g>
<g style="mix-blend-mode:screen">
<g style="mix-blend-mode:multiply">
<path d="M7.13366 52.432H6.35498V52.0206H7.13366V52.432Z" fill="#636363"/>
</g>
<g style="mix-blend-mode:multiply">
<path d="M7.13366 51.4447H6.35498V51.0333H7.13366V51.4447Z" fill="#636363"/>
</g>
<g style="mix-blend-mode:multiply">
<path d="M7.13366 50.4574H6.35498V50.046H7.13366V50.4574Z" fill="#636363"/>
</g>
<g style="mix-blend-mode:multiply">
<path d="M7.13366 49.47H6.35498V49.0586H7.13366V49.47Z" fill="#636363"/>
</g>
<g style="mix-blend-mode:multiply">
<path d="M7.13366 48.4857H6.35498V48.0743H7.13366V48.4857Z" fill="#636363"/>
</g>
<g style="mix-blend-mode:multiply">
<path d="M7.13366 47.4984H6.35498V47.087H7.13366V47.4984Z" fill="#636363"/>
</g>
<g style="mix-blend-mode:multiply">
<path d="M7.13366 46.5111H6.35498V46.0997H7.13366V46.5111Z" fill="#636363"/>
</g>
</g>
<g style="mix-blend-mode:screen">
<g style="mix-blend-mode:multiply">
<path d="M6.1466 51.8835H5.36792V51.4722H6.1466V51.8835Z" fill="#636363"/>
</g>
<g style="mix-blend-mode:multiply">
<path d="M6.1466 50.8962H5.36792V50.4849H6.1466V50.8962Z" fill="#636363"/>
</g>
<g style="mix-blend-mode:multiply">
<path d="M6.1466 49.9089H5.36792V49.4975H6.1466V49.9089Z" fill="#636363"/>
</g>
<g style="mix-blend-mode:multiply">
<path d="M6.1466 48.9246H5.36792V48.5132H6.1466V48.9246Z" fill="#636363"/>
</g>
<g style="mix-blend-mode:multiply">
<path d="M6.1466 47.9373H5.36792V47.5259H6.1466V47.9373Z" fill="#636363"/>
</g>
<g style="mix-blend-mode:multiply">
<path d="M6.1466 46.95H5.36792V46.5386H6.1466V46.95Z" fill="#636363"/>
</g>
</g>
<g style="mix-blend-mode:screen">
<g style="mix-blend-mode:multiply">
<path d="M8.20056 51.8835H7.42188V51.4722H8.20056V51.8835Z" fill="#636363"/>
</g>
<g style="mix-blend-mode:multiply">
<path d="M8.20056 50.8962H7.42188V50.4849H8.20056V50.8962Z" fill="#636363"/>
</g>
<g style="mix-blend-mode:multiply">
<path d="M8.20056 49.9089H7.42188V49.4975H8.20056V49.9089Z" fill="#636363"/>
</g>
<g style="mix-blend-mode:multiply">
<path d="M8.20056 48.9246H7.42188V48.5132H8.20056V48.9246Z" fill="#636363"/>
</g>
<g style="mix-blend-mode:multiply">
<path d="M8.20056 47.9373H7.42188V47.5259H8.20056V47.9373Z" fill="#636363"/>
</g>
<g style="mix-blend-mode:multiply">
<path d="M8.20056 46.95H7.42188V46.5386H8.20056V46.95Z" fill="#636363"/>
</g>
</g>
<path d="M21.8796 26.9839H17.9954V22.2362H21.8796V26.9839Z" fill="url(#paint4_linear_4047_1854)"/>
<path d="M7.85418 26.9839H3.96997V22.2362H7.85418V26.9839Z" fill="url(#paint5_linear_4047_1854)"/>
<path d="M17.7073 24.2963H8.1792V1.97165H17.7073V24.2963Z" fill="url(#paint6_linear_4047_1854)"/>
<path d="M16.7876 23.3821H9.09888V2.88585H16.7876V23.3821Z" fill="url(#paint7_linear_4047_1854)"/>
<path d="M17.0574 24.6101H9.09277V20.2098H17.0574V24.6101Z" fill="url(#paint8_linear_4047_1854)"/>
<path d="M19.1543 56.4027H6.76287C4.76711 56.4027 3.14844 54.1843 3.14844 52.2005L3.73092 25.2592C3.73092 24.6649 7.86038 24.1804 12.9555 24.1804C18.0507 24.1804 22.1802 24.6619 22.1802 25.2592L22.7657 52.2005C22.7657 54.1843 21.147 56.4027 19.1513 56.4027H19.1543Z" fill="url(#paint9_linear_4047_1854)"/>
<path d="M22.7687 52.2005C22.7687 54.1843 21.15 56.4027 19.1543 56.4027H6.7628C4.76704 56.4027 3.14836 54.1843 3.14836 52.2005L2.8418 45.3958H23.0753L22.7687 52.2005Z" fill="url(#paint10_linear_4047_1854)"/>
<path style="mix-blend-mode:multiply" d="M18.9735 48.0835C19.4947 44.2012 19.5284 41.0016 19.0501 40.9406C18.5719 40.8766 17.7626 43.9727 17.2414 47.855C16.7202 51.7372 16.6865 55.5433 17.1647 55.6073C17.643 55.6713 18.4523 51.9658 18.9735 48.0835Z" fill="url(#paint11_radial_4047_1854)"/>
<path style="mix-blend-mode:multiply" d="M18.3358 51.8653C18.1733 53.075 17.9832 55.0009 17.784 55.9852H16.248C16.3124 54.9339 16.432 52.9288 16.6037 51.6337C17.1248 47.7514 17.9342 44.6553 18.4124 44.7193C18.8907 44.7833 18.8569 47.9799 18.3358 51.8622V51.8653Z" fill="url(#paint12_radial_4047_1854)"/>
<path style="mix-blend-mode:multiply" d="M19.2032 45.9474C19.7244 42.0651 19.7581 38.8655 19.2799 38.8045C18.8016 38.7405 17.9923 41.8366 17.4711 45.7189C16.95 49.6011 16.9162 53.4072 17.3945 53.4712C17.8727 53.5352 18.6821 49.8297 19.2032 45.9474Z" fill="url(#paint13_radial_4047_1854)"/>
<path style="mix-blend-mode:screen" d="M23.0723 45.4934L22.7688 52.2005C22.7688 52.6484 22.4745 53.6784 22.3212 54.0746C22.2783 53.9222 22.4499 53.7699 22.4223 53.6023C21.9564 50.7012 22.6553 48.178 21.4352 46.246C21.0643 45.661 21.334 45.4324 21.8859 45.3958H22.2629C22.5082 45.408 22.781 45.4446 23.0692 45.4934H23.0723Z" fill="url(#paint14_linear_4047_1854)"/>
<path style="mix-blend-mode:screen" d="M2.85414 45.4934L3.15764 52.2005C3.15764 52.6484 3.38757 53.6784 3.53779 54.0746C3.58071 53.9222 3.47647 53.7699 3.501 53.6023C3.96698 50.7012 3.26801 48.178 4.48815 46.246C4.85909 45.661 4.58931 45.4324 4.03749 45.3958H3.65735C3.41209 45.408 3.13925 45.4446 2.85107 45.4934H2.85414Z" fill="url(#paint15_linear_4047_1854)"/>
<path style="mix-blend-mode:screen" d="M5.66226 48.047C5.66226 50.4727 6.49306 53.3432 7.87875 55.1716C7.59671 55.132 4.80081 54.0533 4.35935 51.7495C3.89337 49.3238 4.59234 47.724 3.3722 46.1089C2.63951 45.1399 4.4084 45.3349 5.94124 45.6457C5.76037 46.4228 5.66226 47.2273 5.66226 48.0501V48.047Z" fill="url(#paint16_linear_4047_1854)"/>
<path d="M19.1543 56.4027H6.76287C4.76711 56.4027 3.14844 54.1843 3.14844 52.2005V51.7495C3.14844 53.7333 4.76711 55.9517 6.76287 55.9517H19.1543C21.1501 55.9517 22.7688 53.7333 22.7688 51.7495V52.2005C22.7688 54.1843 21.1501 56.4027 19.1543 56.4027Z" fill="url(#paint17_linear_4047_1854)"/>
<path d="M18.3357 46.1058L17.0236 55.6683C17.0236 55.9304 15.2026 56.1406 12.9555 56.1406C10.7083 56.1406 8.88731 55.9304 8.88731 55.6683L7.5752 46.1058H18.3357Z" fill="url(#paint18_linear_4047_1854)"/>
<path d="M22.1984 53.6297C22.2168 53.4316 22.2168 53.2335 22.1984 53.0354C22.2628 52.8404 22.2904 52.6667 22.2812 52.4961C22.2751 52.3772 22.3548 52.2706 22.4621 52.2492H22.4958C22.6092 52.2492 22.7012 52.3468 22.7073 52.4747C22.7288 52.9105 22.5878 53.3341 22.3088 53.6693L22.1831 53.8217L22.1954 53.6297H22.1984Z" fill="url(#paint19_linear_4047_1854)"/>
<path d="M22.4744 52.3102C22.3916 52.3254 22.3364 52.4077 22.3425 52.4961C22.3517 52.6819 22.3211 52.8617 22.2598 53.0324C22.2782 53.2335 22.2782 53.4377 22.2598 53.6388C22.2598 53.6388 22.2628 53.6388 22.2659 53.6327C22.5357 53.3097 22.6706 52.8983 22.6491 52.4808C22.643 52.3711 22.5602 52.2949 22.4774 52.3132L22.4744 52.3102Z" fill="#F7941E"/>
<path d="M3.5377 53.6754C3.24952 53.3249 3.11157 52.9075 3.13303 52.4747C3.13916 52.3468 3.23113 52.2462 3.34456 52.2462H3.37828C3.48865 52.2706 3.56529 52.3772 3.55916 52.4961C3.54996 52.6667 3.57755 52.8374 3.63887 53.008C3.62354 53.2305 3.62354 53.4316 3.64193 53.6297L3.66032 53.8247L3.53463 53.6754H3.5377Z" fill="url(#paint20_linear_4047_1854)"/>
<path d="M3.36592 52.3102C3.4487 52.3254 3.50388 52.4077 3.49775 52.4961C3.48855 52.6819 3.51921 52.8617 3.58052 53.0324C3.56213 53.2335 3.56213 53.4377 3.58052 53.6388C3.58052 53.6388 3.57746 53.6388 3.57439 53.6327C3.30461 53.3097 3.16972 52.8983 3.19118 52.4808C3.19731 52.3711 3.28009 52.2949 3.36286 52.3132L3.36592 52.3102Z" fill="#F7941E"/>
<path d="M16.8948 55.1746C16.9653 55.1746 17.0327 55.1685 17.1002 55.1655L17.0266 55.6683C17.0266 55.9304 15.2056 56.1406 12.9584 56.1406C10.7113 56.1406 8.89028 55.9304 8.89028 55.6683L8.80444 55.0893C8.83817 55.0863 8.86882 55.0802 8.90255 55.0741C9.04357 55.3209 10.8002 55.5159 12.9554 55.5159C14.8132 55.5159 16.3767 55.3727 16.8641 55.1746C16.8733 55.1746 16.8825 55.1746 16.8917 55.1746H16.8948Z" fill="url(#paint21_linear_4047_1854)"/>
<path d="M4.52488 40.3677L2.83569 42.6715L2.84796 45.3958L5.04911 46.1058L4.59846 40.4287L4.52488 40.3677Z" fill="url(#paint22_linear_4047_1854)"/>
<path d="M21.3984 40.3677L23.0876 42.6715L23.0753 45.3958L20.8987 46.1058L21.3248 40.4287L21.3984 40.3677Z" fill="url(#paint23_linear_4047_1854)"/>
<path d="M20.9813 40.3677H20.9598C19.0101 40.6633 16.0946 40.8309 12.9554 40.8309C9.81611 40.8309 6.90065 40.6633 4.95088 40.3708H4.92942H4.54314L4.20898 45.3775C4.20898 46.9042 12.5967 46.9225 12.9523 46.9225C13.3079 46.9225 21.6987 46.9042 21.6987 45.3988L21.3645 40.3708H20.9782L20.9813 40.3677Z" fill="black"/>
<path d="M12.9586 46.6147C8.46427 46.6147 4.50342 46.0693 4.50342 45.3958L4.81918 40.6725H4.91422C6.79348 40.9528 9.69667 41.1357 12.9586 41.1357C16.2204 41.1357 19.1236 40.9559 21.0029 40.6725H21.0979L21.4137 45.3958C21.4137 46.0693 17.4528 46.6147 12.9586 46.6147Z" fill="url(#paint24_linear_4047_1854)"/>
<path d="M22.1434 25.1647L20.5093 28.0261H5.40476L3.74316 25.2013C3.99455 24.6314 8.02285 24.1804 12.9555 24.1804C17.8882 24.1804 21.7295 24.6131 22.1434 25.1616V25.1647Z" fill="url(#paint25_linear_4047_1854)"/>
<path d="M22.7472 44.9844C22.7472 44.9844 23.6455 44.7467 23.6148 43.9727C23.5842 43.1956 22.5541 41.6872 22.597 42.6806C22.6399 43.6771 22.643 44.6918 22.7472 44.9844Z" fill="url(#paint26_linear_4047_1854)"/>
<path d="M25.9723 43.2657C25.957 43.7563 23.5934 44.3841 23.5259 44.2134C23.0109 44.2195 22.9496 43.8417 22.9986 43.5766C24.1145 43.6924 25.1415 43.3846 25.9018 42.833C25.9723 42.9366 26.0459 43.089 25.9754 43.2657H25.9723Z" fill="url(#paint27_linear_4047_1854)"/>
<path d="M22.9404 43.5735C22.968 43.3937 23.0293 43.2536 23.0293 43.2505C24.0747 43.3968 25.0649 43.156 25.8314 42.6715C25.8314 42.6715 25.8927 42.7264 25.9571 42.8147C25.16 43.3815 24.0962 43.6985 22.9404 43.5735Z" fill="url(#paint28_linear_4047_1854)"/>
<path d="M3.25263 44.9844C3.25263 44.9844 2.35439 44.7467 2.38504 43.9727C2.4157 43.1956 3.44577 41.6872 3.40285 42.6806C3.35993 43.6771 3.35686 44.6918 3.25263 44.9844Z" fill="url(#paint29_linear_4047_1854)"/>
<path d="M0.0274974 43.2657C0.0428258 43.7563 2.40646 44.3841 2.47391 44.2134C2.98588 44.2195 3.05025 43.8417 3.0012 43.5766C1.8853 43.6924 0.858296 43.3846 0.098008 42.833C0.0274974 42.9366 -0.0430131 43.089 0.0274974 43.2657Z" fill="url(#paint30_linear_4047_1854)"/>
<path d="M3.05935 43.5735C3.03176 43.3937 2.97045 43.2536 2.97045 43.2505C1.92505 43.3968 0.934836 43.156 0.168417 42.6715C0.168417 42.6715 0.104038 42.7264 0.0427246 42.8147C0.836735 43.3815 1.90359 43.6985 3.05935 43.5735Z" fill="url(#paint31_linear_4047_1854)"/>
<path d="M4.5647 40.3678L5.44455 28.1664C5.42002 28.1206 5.40469 28.0749 5.40469 28.0262C5.40469 27.2674 8.4673 26.6549 12.9555 26.6549C17.4436 26.6549 20.5062 27.2674 20.5062 28.0262L21.3953 40.3678H4.5647Z" fill="url(#paint32_linear_4047_1854)"/>
<path style="mix-blend-mode:multiply" d="M22.1708 53.4743C22.0696 53.6906 20.687 54.6688 20.1659 55.0375C20.0402 55.1259 19.9359 55.2021 19.8624 55.2539C19.4853 55.5251 19.427 55.7628 19.4424 55.9121C19.4577 56.0462 19.5435 56.1559 19.6692 56.2077C19.7275 56.2321 19.7918 56.2443 19.8593 56.2443C19.9237 56.2443 19.9911 56.2351 20.0555 56.2138C22.3977 55.5007 22.4651 53.5565 22.4651 53.5352L22.1708 53.4712V53.4743Z" fill="url(#paint33_linear_4047_1854)"/>
<path d="M19.7306 56.0676C19.5467 55.9914 19.4915 55.711 19.9544 55.3758C20.4173 55.0406 22.1893 53.8247 22.315 53.5322C22.315 53.5322 22.2751 55.3789 20.0127 56.0676C19.9268 56.095 19.8195 56.1041 19.7306 56.0676Z" fill="url(#paint34_linear_4047_1854)"/>
<path d="M20.92 55.1594C20.3437 55.6012 19.7919 55.8603 19.6079 55.7932C19.6355 55.6774 19.7367 55.5311 19.9543 55.3757C20.2793 55.1411 21.245 54.4737 21.8367 53.9953C21.8428 54.0014 21.8551 54.0014 21.8581 54.0075C21.9746 54.1568 21.5546 54.6748 20.92 55.1594Z" fill="#FBEA00"/>
<path style="mix-blend-mode:multiply" d="M3.72765 53.4743C3.82882 53.6906 5.21144 54.6688 5.73261 55.0375C5.8583 55.1259 5.96253 55.2021 6.03611 55.2539C6.41319 55.5251 6.47143 55.7628 6.45611 55.9121C6.44078 56.0462 6.35494 56.1559 6.22925 56.2077C6.171 56.2321 6.10662 56.2443 6.03917 56.2443C5.9748 56.2443 5.90735 56.2351 5.84297 56.2138C3.50079 55.5007 3.43335 53.5565 3.43335 53.5352L3.72765 53.4712V53.4743Z" fill="url(#paint35_linear_4047_1854)"/>
<path d="M6.17103 56.0676C6.35498 55.9914 6.41016 55.711 5.94724 55.3758C5.48432 55.0406 3.71236 53.8247 3.58667 53.5322C3.58667 53.5322 3.62652 55.3789 5.88899 56.0676C5.97483 56.095 6.08213 56.1041 6.17103 56.0676Z" fill="url(#paint36_linear_4047_1854)"/>
<path d="M4.98142 55.1594C5.55777 55.6012 6.10959 55.8603 6.29353 55.7932C6.26594 55.6774 6.16478 55.5311 5.94711 55.3757C5.62215 55.1411 4.65646 54.4737 4.06479 53.9953C4.05866 54.0014 4.04639 54.0014 4.04333 54.0075C3.92683 54.1568 4.34683 54.6748 4.98449 55.1594H4.98142Z" fill="#FBEA00"/>
<path style="mix-blend-mode:screen" d="M12.9585 46.6147C12.3485 46.6147 11.7476 46.6056 11.1651 46.5843C9.28893 45.2221 7.97376 43.2322 7.59668 40.9528C9.15711 41.0656 10.9934 41.1326 12.9585 41.1326C16.2204 41.1326 19.1236 40.9528 21.0029 40.6694H21.0979L21.4137 45.3928C21.4137 46.0662 17.4528 46.6117 12.9585 46.6117V46.6147Z" fill="url(#paint37_linear_4047_1854)"/>
<path d="M22.4989 39.8314L21.7049 39.1915L20.9324 31.7469L22.2997 30.7139L22.4989 39.8314Z" fill="url(#paint38_linear_4047_1854)"/>
<path style="mix-blend-mode:screen" d="M22.4499 36.5739L21.7049 35.4829L20.9324 31.7469L22.2997 30.7139L22.4499 36.5739Z" fill="url(#paint39_linear_4047_1854)"/>
<path d="M3.40283 39.6974L4.21217 39.1915L4.98166 31.7469L3.61436 30.7139L3.40283 39.6974Z" fill="url(#paint40_linear_4047_1854)"/>
<path style="mix-blend-mode:screen" d="M3.52539 36.1351L4.2121 35.483L4.98159 31.747L3.6143 30.714L3.52539 36.1351Z" fill="url(#paint41_linear_4047_1854)"/>
<path d="M20.9324 31.1984V28.5746L22.223 27.1729L22.2935 30.3085L20.9324 31.1984Z" fill="url(#paint42_linear_4047_1854)"/>
<path d="M4.91419 31.1984V28.5746L3.70018 27.1729L3.62354 30.2689L4.91419 31.1984Z" fill="url(#paint43_linear_4047_1854)"/>
<path style="mix-blend-mode:overlay" d="M8.13009 28.3004C8.13009 28.1846 8.03506 28.0902 7.91856 28.0902C7.80207 28.0902 7.70703 28.1846 7.70703 28.3004V38.9874C7.70703 39.1032 7.80207 39.1976 7.91856 39.1976C8.03506 39.1976 8.13009 39.1032 8.13009 38.9874V28.3004ZM9.14177 38.9874C9.14177 39.1032 9.04673 39.1976 8.93024 39.1976C8.81374 39.1976 8.7187 39.1032 8.7187 38.9874V28.3004C8.7187 28.1846 8.81374 28.0902 8.93024 28.0902C9.04673 28.0902 9.14177 28.1846 9.14177 28.3004V38.9874ZM10.1534 38.9874C10.1534 39.1032 10.0584 39.1976 9.94191 39.1976C9.82541 39.1976 9.73038 39.1032 9.73038 38.9874V28.3004C9.73038 28.1846 9.82541 28.0902 9.94191 28.0902C10.0584 28.0902 10.1534 28.1846 10.1534 28.3004V38.9874ZM11.1651 38.9874C11.1651 39.1032 11.0701 39.1976 10.9536 39.1976C10.8371 39.1976 10.7421 39.1032 10.7421 38.9874V28.3004C10.7421 28.1846 10.8371 28.0902 10.9536 28.0902C11.0701 28.0902 11.1651 28.1846 11.1651 28.3004V38.9874ZM12.1768 38.9874C12.1768 39.1032 12.0818 39.1976 11.9653 39.1976C11.8488 39.1976 11.7537 39.1032 11.7537 38.9874V28.3004C11.7537 28.1846 11.8488 28.0902 11.9653 28.0902C12.0818 28.0902 12.1768 28.1846 12.1768 28.3004V38.9874ZM13.1885 38.9874C13.1885 39.1032 13.0934 39.1976 12.9769 39.1976C12.8604 39.1976 12.7654 39.1032 12.7654 38.9874V28.3004C12.7654 28.1846 12.8604 28.0902 12.9769 28.0902C13.0934 28.0902 13.1885 28.1846 13.1885 28.3004V38.9874ZM14.2001 38.9874C14.2001 39.1032 14.1051 39.1976 13.9886 39.1976C13.8721 39.1976 13.7771 39.1032 13.7771 38.9874V28.3004C13.7771 28.1846 13.8721 28.0902 13.9886 28.0902C14.1051 28.0902 14.2001 28.1846 14.2001 28.3004V38.9874ZM15.2118 38.9874C15.2118 39.1032 15.1168 39.1976 15.0003 39.1976C14.8838 39.1976 14.7887 39.1032 14.7887 38.9874V28.3004C14.7887 28.1846 14.8838 28.0902 15.0003 28.0902C15.1168 28.0902 15.2118 28.1846 15.2118 28.3004V38.9874ZM16.2235 38.9874C16.2235 39.1032 16.1284 39.1976 16.0119 39.1976C15.8955 39.1976 15.8004 39.1032 15.8004 38.9874V28.3004C15.8004 28.1846 15.8955 28.0902 16.0119 28.0902C16.1284 28.0902 16.2235 28.1846 16.2235 28.3004V38.9874ZM17.2352 38.9874C17.2352 39.1032 17.1401 39.1976 17.0236 39.1976C16.9071 39.1976 16.8121 39.1032 16.8121 38.9874V28.3004C16.8121 28.1846 16.9071 28.0902 17.0236 28.0902C17.1401 28.0902 17.2352 28.1846 17.2352 28.3004V38.9874ZM18.2468 38.9874C18.2468 39.1032 18.1518 39.1976 18.0353 39.1976C17.9188 39.1976 17.8238 39.1032 17.8238 38.9874V28.3004C17.8238 28.1846 17.9188 28.0902 18.0353 28.0902C18.1518 28.0902 18.2468 28.1846 18.2468 28.3004V38.9874Z" fill="url(#paint44_linear_4047_1854)"/>
<path style="mix-blend-mode:screen" d="M12.9799 40.2367C8.87802 40.2367 5.55176 39.8863 5.55176 39.4535L6.35496 28.3095C6.99876 28.017 9.07729 27.569 12.9554 27.569C16.8334 27.569 19.0285 28.0413 19.6079 28.3339L20.408 39.4535C20.408 39.8863 17.0818 40.2367 12.9799 40.2367Z" fill="url(#paint45_linear_4047_1854)"/>
<path d="M15.8159 1.97156H10.0769V1.05736H15.8159V1.97156Z" fill="url(#paint46_linear_4047_1854)"/>
<path d="M17.4038 4.91218H19.5283L19.5896 6.63391H17.4651L17.4038 4.91218Z" fill="black"/>
<path d="M21.2298 8.74268H21.0581V2.73337H21.2298V8.74268Z" fill="black"/>
<path d="M23.0631 9.35217H21.7418C21.4505 9.35217 21.2114 9.08096 21.2114 8.74271V2.88577C21.2114 2.55057 21.4505 2.27631 21.7418 2.27631H23.0631C23.3543 2.27631 23.5935 2.55057 23.5935 2.88577V8.74271C23.5935 9.08096 23.3543 9.35217 23.0631 9.35217Z" fill="url(#paint47_linear_4047_1854)"/>
<g style="mix-blend-mode:multiply">
<path d="M21.2114 8.74266H21.8184V9.15405H21.3524C21.2666 9.04435 21.2114 8.90112 21.2114 8.74266Z" fill="#636363"/>
</g>
<g style="mix-blend-mode:multiply">
<path d="M21.8185 8.16675H21.144V7.75536H21.8185V8.16675Z" fill="#636363"/>
</g>
<g style="mix-blend-mode:multiply">
<path d="M21.8185 7.1825H21.144V6.77111H21.8185V7.1825Z" fill="#636363"/>
</g>
<g style="mix-blend-mode:multiply">
<path d="M21.8185 6.19507H21.144V5.78368H21.8185V6.19507Z" fill="#636363"/>
</g>
<g style="mix-blend-mode:multiply">
<path d="M21.8185 5.20776H21.144V4.79638H21.8185V5.20776Z" fill="#636363"/>
</g>
<g style="mix-blend-mode:multiply">
<path d="M21.8185 4.22046H21.144V3.80907H21.8185V4.22046Z" fill="#636363"/>
</g>
<g style="mix-blend-mode:multiply">
<path d="M21.8185 3.23621H21.144V2.82482H21.8185V3.23621Z" fill="#636363"/>
</g>
<g style="mix-blend-mode:multiply">
<path d="M22.9192 9.15405V8.74266H23.5936C23.5936 8.90112 23.5385 9.04435 23.4526 9.15405H22.9192Z" fill="#636363"/>
</g>
<g style="mix-blend-mode:multiply">
<path d="M23.5936 8.16675H22.9192V7.75536H23.5936V8.16675Z" fill="#636363"/>
</g>
<g style="mix-blend-mode:multiply">
<path d="M23.5936 7.1825H22.9192V6.77111H23.5936V7.1825Z" fill="#636363"/>
</g>
<g style="mix-blend-mode:multiply">
<path d="M23.5936 6.19507H22.9192V5.78368H23.5936V6.19507Z" fill="#636363"/>
</g>
<g style="mix-blend-mode:multiply">
<path d="M23.5936 5.20776H22.9192V4.79638H23.5936V5.20776Z" fill="#636363"/>
</g>
<g style="mix-blend-mode:multiply">
<path d="M23.5936 4.22046H22.9192V3.80907H23.5936V4.22046Z" fill="#636363"/>
</g>
<g style="mix-blend-mode:multiply">
<path d="M23.5936 3.23621H22.9192V2.82482H23.5936V3.23621Z" fill="#636363"/>
</g>
<g style="mix-blend-mode:multiply">
<path d="M22.7413 8.60559H22.0669V8.1942H22.7413V8.60559Z" fill="#636363"/>
</g>
<g style="mix-blend-mode:multiply">
<path d="M22.7413 7.62134H22.0669V7.20995H22.7413V7.62134Z" fill="#636363"/>
</g>
<g style="mix-blend-mode:multiply">
<path d="M22.7413 6.63403H22.0669V6.22264H22.7413V6.63403Z" fill="#636363"/>
</g>
<g style="mix-blend-mode:multiply">
<path d="M22.7413 5.64661H22.0669V5.23522H22.7413V5.64661Z" fill="#636363"/>
</g>
<g style="mix-blend-mode:multiply">
<path d="M22.7413 4.6593H22.0669V4.24791H22.7413V4.6593Z" fill="#636363"/>
</g>
<g style="mix-blend-mode:multiply">
<path d="M22.7413 3.67505H22.0669V3.26366H22.7413V3.67505Z" fill="#636363"/>
</g>
<g style="mix-blend-mode:screen">
<g style="mix-blend-mode:multiply">
<path d="M22.7413 9.15405H22.0669V8.74266H22.7413V9.15405Z" fill="#636363"/>
</g>
<g style="mix-blend-mode:multiply">
<path d="M22.7413 8.16675H22.0669V7.75536H22.7413V8.16675Z" fill="#636363"/>
</g>
<g style="mix-blend-mode:multiply">
<path d="M22.7413 7.1825H22.0669V6.77111H22.7413V7.1825Z" fill="#636363"/>
</g>
<g style="mix-blend-mode:multiply">
<path d="M22.7413 6.19507H22.0669V5.78368H22.7413V6.19507Z" fill="#636363"/>
</g>
<g style="mix-blend-mode:multiply">
<path d="M22.7413 5.20776H22.0669V4.79638H22.7413V5.20776Z" fill="#636363"/>
</g>
<g style="mix-blend-mode:multiply">
<path d="M22.7413 4.22046H22.0669V3.80907H22.7413V4.22046Z" fill="#636363"/>
</g>
<g style="mix-blend-mode:multiply">
<path d="M22.7413 3.23621H22.0669V2.82482H22.7413V3.23621Z" fill="#636363"/>
</g>
</g>
<g style="mix-blend-mode:screen">
<g style="mix-blend-mode:multiply">
<path d="M23.5936 8.60559H22.9192V8.1942H23.5936V8.60559Z" fill="#636363"/>
</g>
<g style="mix-blend-mode:multiply">
<path d="M23.5936 7.62134H22.9192V7.20995H23.5936V7.62134Z" fill="#636363"/>
</g>
<g style="mix-blend-mode:multiply">
<path d="M23.5936 6.63403H22.9192V6.22264H23.5936V6.63403Z" fill="#636363"/>
</g>
<g style="mix-blend-mode:multiply">
<path d="M23.5936 5.64661H22.9192V5.23522H23.5936V5.64661Z" fill="#636363"/>
</g>
<g style="mix-blend-mode:multiply">
<path d="M23.5936 4.6593H22.9192V4.24791H23.5936V4.6593Z" fill="#636363"/>
</g>
<g style="mix-blend-mode:multiply">
<path d="M23.5936 3.67505H22.9192V3.26366H23.5936V3.67505Z" fill="#636363"/>
</g>
</g>
<g style="mix-blend-mode:screen">
<g style="mix-blend-mode:multiply">
<path d="M21.8185 8.60559H21.144V8.1942H21.8185V8.60559Z" fill="#636363"/>
</g>
<g style="mix-blend-mode:multiply">
<path d="M21.8185 7.62134H21.144V7.20995H21.8185V7.62134Z" fill="#636363"/>
</g>
<g style="mix-blend-mode:multiply">
<path d="M21.8185 6.63403H21.144V6.22264H21.8185V6.63403Z" fill="#636363"/>
</g>
<g style="mix-blend-mode:multiply">
<path d="M21.8185 5.64661H21.144V5.23522H21.8185V5.64661Z" fill="#636363"/>
</g>
<g style="mix-blend-mode:multiply">
<path d="M21.8185 4.6593H21.144V4.24791H21.8185V4.6593Z" fill="#636363"/>
</g>
<g style="mix-blend-mode:multiply">
<path d="M21.8185 3.67505H21.144V3.26366H21.8185V3.67505Z" fill="#636363"/>
</g>
</g>
<path d="M20.5277 9.35217H19.2064C18.9121 9.35217 18.676 9.08096 18.676 8.74271V2.88577C18.676 2.55057 18.9121 2.27631 19.2064 2.27631H20.5277C20.822 2.27631 21.0581 2.55057 21.0581 2.88577V8.74271C21.0581 9.08096 20.822 9.35217 20.5277 9.35217Z" fill="url(#paint48_linear_4047_1854)"/>
<g style="mix-blend-mode:multiply">
<path d="M18.676 8.74266H19.283V9.15405H18.817C18.7312 9.04435 18.676 8.90112 18.676 8.74266Z" fill="#636363"/>
</g>
<g style="mix-blend-mode:multiply">
<path d="M19.2831 8.16675H18.6699V7.75536H19.2831V8.16675Z" fill="#636363"/>
</g>
<g style="mix-blend-mode:multiply">
<path d="M19.2831 7.1825H18.6699V6.77111H19.2831V7.1825Z" fill="#636363"/>
</g>
<g style="mix-blend-mode:multiply">
<path d="M19.2831 6.19507H18.6086V5.78368H19.2831V6.19507Z" fill="#636363"/>
</g>
<g style="mix-blend-mode:multiply">
<path d="M19.283 5.20776H18.676V4.79638H19.283V5.20776Z" fill="#636363"/>
</g>
<g style="mix-blend-mode:multiply">
<path d="M19.283 4.22046H18.676V3.80907H19.283V4.22046Z" fill="#636363"/>
</g>
<g style="mix-blend-mode:multiply">
<path d="M19.283 3.23621H18.676V2.82482H19.283V3.23621Z" fill="#636363"/>
</g>
<g style="mix-blend-mode:multiply">
<path d="M20.3838 9.15405V8.74266H21.0582C21.0582 8.90112 21.0031 9.04435 20.9172 9.15405H20.3838Z" fill="#636363"/>
</g>
<g style="mix-blend-mode:multiply">
<path d="M21.0582 8.16675H20.3838V7.75536H21.0582V8.16675Z" fill="#636363"/>
</g>
<g style="mix-blend-mode:multiply">
<path d="M21.0582 7.1825H20.3838V6.77111H21.0582V7.1825Z" fill="#636363"/>
</g>
<g style="mix-blend-mode:multiply">
<path d="M21.0582 6.19507H20.3838V5.78368H21.0582V6.19507Z" fill="#636363"/>
</g>
<g style="mix-blend-mode:multiply">
<path d="M21.0582 5.20776H20.3838V4.79638H21.0582V5.20776Z" fill="#636363"/>
</g>
<g style="mix-blend-mode:multiply">
<path d="M21.0582 4.22046H20.3838V3.80907H21.0582V4.22046Z" fill="#636363"/>
</g>
<g style="mix-blend-mode:multiply">
<path d="M21.0582 3.23621H20.3838V2.82482H21.0582V3.23621Z" fill="#636363"/>
</g>
<g style="mix-blend-mode:multiply">
<path d="M20.2028 8.60559H19.5283V8.1942H20.2028V8.60559Z" fill="#636363"/>
</g>
<g style="mix-blend-mode:multiply">
<path d="M20.2028 7.62134H19.5283V7.20995H20.2028V7.62134Z" fill="#636363"/>
</g>
<g style="mix-blend-mode:multiply">
<path d="M20.2028 6.63403H19.5283V6.22264H20.2028V6.63403Z" fill="#636363"/>
</g>
<g style="mix-blend-mode:multiply">
<path d="M20.2028 5.64661H19.5283V5.23522H20.2028V5.64661Z" fill="#636363"/>
</g>
<g style="mix-blend-mode:multiply">
<path d="M20.2028 4.6593H19.5283V4.24791H20.2028V4.6593Z" fill="#636363"/>
</g>
<g style="mix-blend-mode:multiply">
<path d="M20.2028 3.67505H19.5283V3.26366H20.2028V3.67505Z" fill="#636363"/>
</g>
<g style="mix-blend-mode:screen">
<g style="mix-blend-mode:multiply">
<path d="M20.2028 9.15405H19.5283V8.74266H20.2028V9.15405Z" fill="#636363"/>
</g>
<g style="mix-blend-mode:multiply">
<path d="M20.2028 8.16675H19.5283V7.75536H20.2028V8.16675Z" fill="#636363"/>
</g>
<g style="mix-blend-mode:multiply">
<path d="M20.2028 7.1825H19.5283V6.77111H20.2028V7.1825Z" fill="#636363"/>
</g>
<g style="mix-blend-mode:multiply">
<path d="M20.2028 6.19507H19.5283V5.78368H20.2028V6.19507Z" fill="#636363"/>
</g>
<g style="mix-blend-mode:multiply">
<path d="M20.2028 5.20776H19.5283V4.79638H20.2028V5.20776Z" fill="#636363"/>
</g>
<g style="mix-blend-mode:multiply">
<path d="M20.2028 4.22046H19.5283V3.80907H20.2028V4.22046Z" fill="#636363"/>
</g>
<g style="mix-blend-mode:multiply">
<path d="M20.2028 3.23621H19.5283V2.82482H20.2028V3.23621Z" fill="#636363"/>
</g>
</g>
<g style="mix-blend-mode:screen">
<g style="mix-blend-mode:multiply">
<path d="M21.0582 8.60559H20.3838V8.1942H21.0582V8.60559Z" fill="#636363"/>
</g>
<g style="mix-blend-mode:multiply">
<path d="M21.0582 7.62134H20.3838V7.20995H21.0582V7.62134Z" fill="#636363"/>
</g>
<g style="mix-blend-mode:multiply">
<path d="M21.0582 6.63403H20.3838V6.22264H21.0582V6.63403Z" fill="#636363"/>
</g>
<g style="mix-blend-mode:multiply">
<path d="M21.0582 5.64661H20.3838V5.23522H21.0582V5.64661Z" fill="#636363"/>
</g>
<g style="mix-blend-mode:multiply">
<path d="M21.0582 4.6593H20.3838V4.24791H21.0582V4.6593Z" fill="#636363"/>
</g>
<g style="mix-blend-mode:multiply">
<path d="M21.0582 3.67505H20.3838V3.26366H21.0582V3.67505Z" fill="#636363"/>
</g>
</g>
<g style="mix-blend-mode:screen">
<g style="mix-blend-mode:multiply">
<path d="M19.2831 8.60559H18.6699V8.1942H19.2831V8.60559Z" fill="#636363"/>
</g>
<g style="mix-blend-mode:multiply">
<path d="M19.2831 7.62134H18.6699V7.20995H19.2831V7.62134Z" fill="#636363"/>
</g>
<g style="mix-blend-mode:multiply">
<path d="M19.2831 6.63403H18.6699V6.22264H19.2831V6.63403Z" fill="#636363"/>
</g>
<g style="mix-blend-mode:multiply">
<path d="M19.2831 5.64661H18.6086V5.23522H19.2831V5.64661Z" fill="#636363"/>
</g>
<g style="mix-blend-mode:multiply">
<path d="M19.283 4.6593H18.676V4.24791H19.283V4.6593Z" fill="#636363"/>
</g>
<g style="mix-blend-mode:multiply">
<path d="M19.283 3.67505H18.676V3.26366H19.283V3.67505Z" fill="#636363"/>
</g>
</g>
<path d="M17.4038 15.2822H19.5283L19.5896 17.0039H17.4651L17.4038 15.2822Z" fill="black"/>
<path d="M21.2298 19.1157H21.0581V13.1064H21.2298V19.1157Z" fill="black"/>
<path d="M23.0631 19.7252H21.7418C21.4505 19.7252 21.2114 19.454 21.2114 19.1158V13.2588C21.2114 12.9236 21.4505 12.6494 21.7418 12.6494H23.0631C23.3543 12.6494 23.5935 12.9236 23.5935 13.2588V19.1158C23.5935 19.454 23.3543 19.7252 23.0631 19.7252Z" fill="url(#paint49_linear_4047_1854)"/>
<g style="mix-blend-mode:multiply">
<path d="M21.2114 19.1157H21.8184V19.5271H21.3524C21.2666 19.4174 21.2114 19.2742 21.2114 19.1157Z" fill="#636363"/>
</g>
<g style="mix-blend-mode:multiply">
<path d="M21.8185 18.5398H21.144V18.1284H21.8185V18.5398Z" fill="#636363"/>
</g>
<g style="mix-blend-mode:multiply">
<path d="M21.8185 17.5525H21.144V17.1411H21.8185V17.5525Z" fill="#636363"/>
</g>
<g style="mix-blend-mode:multiply">
<path d="M21.8185 16.5651H21.144V16.1537H21.8185V16.5651Z" fill="#636363"/>
</g>
<g style="mix-blend-mode:multiply">
<path d="M21.8185 15.5808H21.144V15.1694H21.8185V15.5808Z" fill="#636363"/>
</g>
<g style="mix-blend-mode:multiply">
<path d="M21.8185 14.5935H21.144V14.1821H21.8185V14.5935Z" fill="#636363"/>
</g>
<g style="mix-blend-mode:multiply">
<path d="M21.8185 13.6062H21.144V13.1948H21.8185V13.6062Z" fill="#636363"/>
</g>
<g style="mix-blend-mode:multiply">
<path d="M22.9192 19.5271V19.1157H23.5936C23.5936 19.2742 23.5385 19.4174 23.4526 19.5271H22.9192Z" fill="#636363"/>
</g>
<g style="mix-blend-mode:multiply">
<path d="M23.5936 18.5398H22.9192V18.1284H23.5936V18.5398Z" fill="#636363"/>
</g>
<g style="mix-blend-mode:multiply">
<path d="M23.5936 17.5525H22.9192V17.1411H23.5936V17.5525Z" fill="#636363"/>
</g>
<g style="mix-blend-mode:multiply">
<path d="M23.5936 16.5651H22.9192V16.1537H23.5936V16.5651Z" fill="#636363"/>
</g>
<g style="mix-blend-mode:multiply">
<path d="M23.5936 15.5808H22.9192V15.1694H23.5936V15.5808Z" fill="#636363"/>
</g>
<g style="mix-blend-mode:multiply">
<path d="M23.5936 14.5935H22.9192V14.1821H23.5936V14.5935Z" fill="#636363"/>
</g>
<g style="mix-blend-mode:multiply">
<path d="M23.5936 13.6062H22.9192V13.1948H23.5936V13.6062Z" fill="#636363"/>
</g>
<g style="mix-blend-mode:multiply">
<path d="M22.7413 18.9786H22.0669V18.5672H22.7413V18.9786Z" fill="#636363"/>
</g>
<g style="mix-blend-mode:multiply">
<path d="M22.7413 17.9913H22.0669V17.5799H22.7413V17.9913Z" fill="#636363"/>
</g>
<g style="mix-blend-mode:multiply">
<path d="M22.7413 17.004H22.0669V16.5926H22.7413V17.004Z" fill="#636363"/>
</g>
<g style="mix-blend-mode:multiply">
<path d="M22.7413 16.0197H22.0669V15.6083H22.7413V16.0197Z" fill="#636363"/>
</g>
<g style="mix-blend-mode:multiply">
<path d="M22.7413 15.0323H22.0669V14.621H22.7413V15.0323Z" fill="#636363"/>
</g>
<g style="mix-blend-mode:multiply">
<path d="M22.7413 14.045H22.0669V13.6337H22.7413V14.045Z" fill="#636363"/>
</g>
<g style="mix-blend-mode:screen">
<g style="mix-blend-mode:multiply">
<path d="M22.7413 19.5271H22.0669V19.1157H22.7413V19.5271Z" fill="#636363"/>
</g>
<g style="mix-blend-mode:multiply">
<path d="M22.7413 18.5398H22.0669V18.1284H22.7413V18.5398Z" fill="#636363"/>
</g>
<g style="mix-blend-mode:multiply">
<path d="M22.7413 17.5525H22.0669V17.1411H22.7413V17.5525Z" fill="#636363"/>
</g>
<g style="mix-blend-mode:multiply">
<path d="M22.7413 16.5651H22.0669V16.1537H22.7413V16.5651Z" fill="#636363"/>
</g>
<g style="mix-blend-mode:multiply">
<path d="M22.7413 15.5808H22.0669V15.1694H22.7413V15.5808Z" fill="#636363"/>
</g>
<g style="mix-blend-mode:multiply">
<path d="M22.7413 14.5935H22.0669V14.1821H22.7413V14.5935Z" fill="#636363"/>
</g>
<g style="mix-blend-mode:multiply">
<path d="M22.7413 13.6062H22.0669V13.1948H22.7413V13.6062Z" fill="#636363"/>
</g>
</g>
<g style="mix-blend-mode:screen">
<g style="mix-blend-mode:multiply">
<path d="M23.5936 18.9786H22.9192V18.5672H23.5936V18.9786Z" fill="#636363"/>
</g>
<g style="mix-blend-mode:multiply">
<path d="M23.5936 17.9913H22.9192V17.5799H23.5936V17.9913Z" fill="#636363"/>
</g>
<g style="mix-blend-mode:multiply">
<path d="M23.5936 17.004H22.9192V16.5926H23.5936V17.004Z" fill="#636363"/>
</g>
<g style="mix-blend-mode:multiply">
<path d="M23.5936 16.0197H22.9192V15.6083H23.5936V16.0197Z" fill="#636363"/>
</g>
<g style="mix-blend-mode:multiply">
<path d="M23.5936 15.0323H22.9192V14.621H23.5936V15.0323Z" fill="#636363"/>
</g>
<g style="mix-blend-mode:multiply">
<path d="M23.5936 14.045H22.9192V13.6337H23.5936V14.045Z" fill="#636363"/>
</g>
</g>
<g style="mix-blend-mode:screen">
<g style="mix-blend-mode:multiply">
<path d="M21.8185 18.9786H21.144V18.5672H21.8185V18.9786Z" fill="#636363"/>
</g>
<g style="mix-blend-mode:multiply">
<path d="M21.8185 17.9913H21.144V17.5799H21.8185V17.9913Z" fill="#636363"/>
</g>
<g style="mix-blend-mode:multiply">
<path d="M21.8185 17.004H21.144V16.5926H21.8185V17.004Z" fill="#636363"/>
</g>
<g style="mix-blend-mode:multiply">
<path d="M21.8185 16.0197H21.144V15.6083H21.8185V16.0197Z" fill="#636363"/>
</g>
<g style="mix-blend-mode:multiply">
<path d="M21.8185 15.0323H21.144V14.621H21.8185V15.0323Z" fill="#636363"/>
</g>
<g style="mix-blend-mode:multiply">
<path d="M21.8185 14.045H21.144V13.6337H21.8185V14.045Z" fill="#636363"/>
</g>
</g>
<path d="M20.5277 19.7252H19.2064C18.9121 19.7252 18.676 19.454 18.676 19.1158V13.2588C18.676 12.9236 18.9121 12.6494 19.2064 12.6494H20.5277C20.822 12.6494 21.0581 12.9236 21.0581 13.2588V19.1158C21.0581 19.454 20.822 19.7252 20.5277 19.7252Z" fill="url(#paint50_linear_4047_1854)"/>
<g style="mix-blend-mode:multiply">
<path d="M18.676 19.1157H19.283V19.5271H18.817C18.7312 19.4174 18.676 19.2742 18.676 19.1157Z" fill="#636363"/>
</g>
<g style="mix-blend-mode:multiply">
<path d="M19.2831 18.5398H18.6699V18.1284H19.2831V18.5398Z" fill="#636363"/>
</g>
<g style="mix-blend-mode:multiply">
<path d="M19.2831 17.5525H18.6699V17.1411H19.2831V17.5525Z" fill="#636363"/>
</g>
<g style="mix-blend-mode:multiply">
<path d="M19.2831 16.5651H18.6086V16.1537H19.2831V16.5651Z" fill="#636363"/>
</g>
<g style="mix-blend-mode:multiply">
<path d="M19.283 15.5808H18.676V15.1694H19.283V15.5808Z" fill="#636363"/>
</g>
<g style="mix-blend-mode:multiply">
<path d="M19.283 14.5935H18.676V14.1821H19.283V14.5935Z" fill="#636363"/>
</g>
<g style="mix-blend-mode:multiply">
<path d="M19.283 13.6062H18.676V13.1948H19.283V13.6062Z" fill="#636363"/>
</g>
<g style="mix-blend-mode:multiply">
<path d="M20.3838 19.5271V19.1157H21.0582C21.0582 19.2742 21.0031 19.4174 20.9172 19.5271H20.3838Z" fill="#636363"/>
</g>
<g style="mix-blend-mode:multiply">
<path d="M21.0582 18.5398H20.3838V18.1284H21.0582V18.5398Z" fill="#636363"/>
</g>
<g style="mix-blend-mode:multiply">
<path d="M21.0582 17.5525H20.3838V17.1411H21.0582V17.5525Z" fill="#636363"/>
</g>
<g style="mix-blend-mode:multiply">
<path d="M21.0582 16.5651H20.3838V16.1537H21.0582V16.5651Z" fill="#636363"/>
</g>
<g style="mix-blend-mode:multiply">
<path d="M21.0582 15.5808H20.3838V15.1694H21.0582V15.5808Z" fill="#636363"/>
</g>
<g style="mix-blend-mode:multiply">
<path d="M21.0582 14.5935H20.3838V14.1821H21.0582V14.5935Z" fill="#636363"/>
</g>
<g style="mix-blend-mode:multiply">
<path d="M21.0582 13.6062H20.3838V13.1948H21.0582V13.6062Z" fill="#636363"/>
</g>
<g style="mix-blend-mode:multiply">
<path d="M20.2028 18.9786H19.5283V18.5672H20.2028V18.9786Z" fill="#636363"/>
</g>
<g style="mix-blend-mode:multiply">
<path d="M20.2028 17.9913H19.5283V17.5799H20.2028V17.9913Z" fill="#636363"/>
</g>
<g style="mix-blend-mode:multiply">
<path d="M20.2028 17.004H19.5283V16.5926H20.2028V17.004Z" fill="#636363"/>
</g>
<g style="mix-blend-mode:multiply">
<path d="M20.2028 16.0197H19.5283V15.6083H20.2028V16.0197Z" fill="#636363"/>
</g>
<g style="mix-blend-mode:multiply">
<path d="M20.2028 15.0323H19.5283V14.621H20.2028V15.0323Z" fill="#636363"/>
</g>
<g style="mix-blend-mode:multiply">
<path d="M20.2028 14.045H19.5283V13.6337H20.2028V14.045Z" fill="#636363"/>
</g>
<g style="mix-blend-mode:screen">
<g style="mix-blend-mode:multiply">
<path d="M20.2028 19.5271H19.5283V19.1157H20.2028V19.5271Z" fill="#636363"/>
</g>
<g style="mix-blend-mode:multiply">
<path d="M20.2028 18.5398H19.5283V18.1284H20.2028V18.5398Z" fill="#636363"/>
</g>
<g style="mix-blend-mode:multiply">
<path d="M20.2028 17.5525H19.5283V17.1411H20.2028V17.5525Z" fill="#636363"/>
</g>
<g style="mix-blend-mode:multiply">
<path d="M20.2028 16.5651H19.5283V16.1537H20.2028V16.5651Z" fill="#636363"/>
</g>
<g style="mix-blend-mode:multiply">
<path d="M20.2028 15.5808H19.5283V15.1694H20.2028V15.5808Z" fill="#636363"/>
</g>
<g style="mix-blend-mode:multiply">
<path d="M20.2028 14.5935H19.5283V14.1821H20.2028V14.5935Z" fill="#636363"/>
</g>
<g style="mix-blend-mode:multiply">
<path d="M20.2028 13.6062H19.5283V13.1948H20.2028V13.6062Z" fill="#636363"/>
</g>
</g>
<g style="mix-blend-mode:screen">
<g style="mix-blend-mode:multiply">
<path d="M21.0582 18.9786H20.3838V18.5672H21.0582V18.9786Z" fill="#636363"/>
</g>
<g style="mix-blend-mode:multiply">
<path d="M21.0582 17.9913H20.3838V17.5799H21.0582V17.9913Z" fill="#636363"/>
</g>
<g style="mix-blend-mode:multiply">
<path d="M21.0582 17.004H20.3838V16.5926H21.0582V17.004Z" fill="#636363"/>
</g>
<g style="mix-blend-mode:multiply">
<path d="M21.0582 16.0197H20.3838V15.6083H21.0582V16.0197Z" fill="#636363"/>
</g>
<g style="mix-blend-mode:multiply">
<path d="M21.0582 15.0323H20.3838V14.621H21.0582V15.0323Z" fill="#636363"/>
</g>
<g style="mix-blend-mode:multiply">
<path d="M21.0582 14.045H20.3838V13.6337H21.0582V14.045Z" fill="#636363"/>
</g>
</g>
<g style="mix-blend-mode:screen">
<g style="mix-blend-mode:multiply">
<path d="M19.2831 18.9786H18.6699V18.5672H19.2831V18.9786Z" fill="#636363"/>
</g>
<g style="mix-blend-mode:multiply">
<path d="M19.2831 17.9913H18.6699V17.5799H19.2831V17.9913Z" fill="#636363"/>
</g>
<g style="mix-blend-mode:multiply">
<path d="M19.2831 17.004H18.6699V16.5926H19.2831V17.004Z" fill="#636363"/>
</g>
<g style="mix-blend-mode:multiply">
<path d="M19.2831 16.0197H18.6086V15.6083H19.2831V16.0197Z" fill="#636363"/>
</g>
<g style="mix-blend-mode:multiply">
<path d="M19.283 15.0323H18.676V14.621H19.283V15.0323Z" fill="#636363"/>
</g>
<g style="mix-blend-mode:multiply">
<path d="M19.283 14.045H18.676V13.6337H19.283V14.045Z" fill="#636363"/>
</g>
</g>
<path d="M8.48856 4.91218H6.36098L6.30273 6.63391H8.42725L8.48856 4.91218Z" fill="black"/>
<path d="M4.83428 8.74268H4.6626V2.73337H4.83428V8.74268Z" fill="black"/>
<path d="M2.82943 9.35217H4.15074C4.44198 9.35217 4.6811 9.08096 4.6811 8.74271V2.88577C4.6811 2.55057 4.44198 2.27631 4.15074 2.27631H2.82943C2.53819 2.27631 2.29907 2.55057 2.29907 2.88577V8.74271C2.29907 9.08096 2.53819 9.35217 2.82943 9.35217Z" fill="url(#paint51_linear_4047_1854)"/>
<g style="mix-blend-mode:multiply">
<path d="M4.68122 8.74266H4.07422V9.15405H4.5402C4.62604 9.04435 4.68122 8.90112 4.68122 8.74266Z" fill="#636363"/>
</g>
<g style="mix-blend-mode:multiply">
<path d="M4.74867 8.16675H4.07422V7.75536H4.74867V8.16675Z" fill="#636363"/>
</g>
<g style="mix-blend-mode:multiply">
<path d="M4.74867 7.1825H4.07422V6.77111H4.74867V7.1825Z" fill="#636363"/>
</g>
<g style="mix-blend-mode:multiply">
<path d="M4.74867 6.19507H4.07422V5.78368H4.74867V6.19507Z" fill="#636363"/>
</g>
<g style="mix-blend-mode:multiply">
<path d="M4.74867 5.20776H4.07422V4.79638H4.74867V5.20776Z" fill="#636363"/>
</g>
<g style="mix-blend-mode:multiply">
<path d="M4.74867 4.22046H4.07422V3.80907H4.74867V4.22046Z" fill="#636363"/>
</g>
<g style="mix-blend-mode:multiply">
<path d="M4.74867 3.23621H4.07422V2.82482H4.74867V3.23621Z" fill="#636363"/>
</g>
<g style="mix-blend-mode:multiply">
<path d="M2.97352 9.15405V8.74266H2.29907C2.29907 8.90112 2.35425 9.04435 2.44009 9.15405H2.97352Z" fill="#636363"/>
</g>
<g style="mix-blend-mode:multiply">
<path d="M2.97352 8.16675H2.29907V7.75536H2.97352V8.16675Z" fill="#636363"/>
</g>
<g style="mix-blend-mode:multiply">
<path d="M2.97352 7.1825H2.29907V6.77111H2.97352V7.1825Z" fill="#636363"/>
</g>
<g style="mix-blend-mode:multiply">
<path d="M2.97352 6.19507H2.29907V5.78368H2.97352V6.19507Z" fill="#636363"/>
</g>
<g style="mix-blend-mode:multiply">
<path d="M2.97352 5.20776H2.29907V4.79638H2.97352V5.20776Z" fill="#636363"/>
</g>
<g style="mix-blend-mode:multiply">
<path d="M2.97352 4.22046H2.29907V3.80907H2.97352V4.22046Z" fill="#636363"/>
</g>
<g style="mix-blend-mode:multiply">
<path d="M2.97352 3.23621H2.29907V2.82482H2.97352V3.23621Z" fill="#636363"/>
</g>
<g style="mix-blend-mode:multiply">
<path d="M3.82582 8.60559H3.15137V8.1942H3.82582V8.60559Z" fill="#636363"/>
</g>
<g style="mix-blend-mode:multiply">
<path d="M3.82582 7.62134H3.15137V7.20995H3.82582V7.62134Z" fill="#636363"/>
</g>
<g style="mix-blend-mode:multiply">
<path d="M3.82582 6.63403H3.15137V6.22264H3.82582V6.63403Z" fill="#636363"/>
</g>
<g style="mix-blend-mode:multiply">
<path d="M3.82582 5.64661H3.15137V5.23522H3.82582V5.64661Z" fill="#636363"/>
</g>
<g style="mix-blend-mode:multiply">
<path d="M3.82582 4.6593H3.15137V4.24791H3.82582V4.6593Z" fill="#636363"/>
</g>
<g style="mix-blend-mode:multiply">
<path d="M3.82582 3.67505H3.15137V3.26366H3.82582V3.67505Z" fill="#636363"/>
</g>
<g style="mix-blend-mode:screen">
<g style="mix-blend-mode:multiply">
<path d="M3.82582 9.15405H3.15137V8.74266H3.82582V9.15405Z" fill="#636363"/>
</g>
<g style="mix-blend-mode:multiply">
<path d="M3.82582 8.16675H3.15137V7.75536H3.82582V8.16675Z" fill="#636363"/>
</g>
<g style="mix-blend-mode:multiply">
<path d="M3.82582 7.1825H3.15137V6.77111H3.82582V7.1825Z" fill="#636363"/>
</g>
<g style="mix-blend-mode:multiply">
<path d="M3.82582 6.19507H3.15137V5.78368H3.82582V6.19507Z" fill="#636363"/>
</g>
<g style="mix-blend-mode:multiply">
<path d="M3.82582 5.20776H3.15137V4.79638H3.82582V5.20776Z" fill="#636363"/>
</g>
<g style="mix-blend-mode:multiply">
<path d="M3.82582 4.22046H3.15137V3.80907H3.82582V4.22046Z" fill="#636363"/>
</g>
<g style="mix-blend-mode:multiply">
<path d="M3.82582 3.23621H3.15137V2.82482H3.82582V3.23621Z" fill="#636363"/>
</g>
</g>
<g style="mix-blend-mode:screen">
<g style="mix-blend-mode:multiply">
<path d="M2.97352 8.60559H2.29907V8.1942H2.97352V8.60559Z" fill="#636363"/>
</g>
<g style="mix-blend-mode:multiply">
<path d="M2.97352 7.62134H2.29907V7.20995H2.97352V7.62134Z" fill="#636363"/>
</g>
<g style="mix-blend-mode:multiply">
<path d="M2.97352 6.63403H2.29907V6.22264H2.97352V6.63403Z" fill="#636363"/>
</g>
<g style="mix-blend-mode:multiply">
<path d="M2.97352 5.64661H2.29907V5.23522H2.97352V5.64661Z" fill="#636363"/>
</g>
<g style="mix-blend-mode:multiply">
<path d="M2.97352 4.6593H2.29907V4.24791H2.97352V4.6593Z" fill="#636363"/>
</g>
<g style="mix-blend-mode:multiply">
<path d="M2.97352 3.67505H2.29907V3.26366H2.97352V3.67505Z" fill="#636363"/>
</g>
</g>
<g style="mix-blend-mode:screen">
<g style="mix-blend-mode:multiply">
<path d="M4.74867 8.60559H4.07422V8.1942H4.74867V8.60559Z" fill="#636363"/>
</g>
<g style="mix-blend-mode:multiply">
<path d="M4.74867 7.62134H4.07422V7.20995H4.74867V7.62134Z" fill="#636363"/>
</g>
<g style="mix-blend-mode:multiply">
<path d="M4.74867 6.63403H4.07422V6.22264H4.74867V6.63403Z" fill="#636363"/>
</g>
<g style="mix-blend-mode:multiply">
<path d="M4.74867 5.64661H4.07422V5.23522H4.74867V5.64661Z" fill="#636363"/>
</g>
<g style="mix-blend-mode:multiply">
<path d="M4.74867 4.6593H4.07422V4.24791H4.74867V4.6593Z" fill="#636363"/>
</g>
<g style="mix-blend-mode:multiply">
<path d="M4.74867 3.67505H4.07422V3.26366H4.74867V3.67505Z" fill="#636363"/>
</g>
</g>
<path d="M5.36483 9.35217H6.68614C6.98045 9.35217 7.2165 9.08096 7.2165 8.74271V2.88577C7.2165 2.55057 6.98045 2.27631 6.68614 2.27631H5.36483C5.07053 2.27631 4.83447 2.55057 4.83447 2.88577V8.74271C4.83447 9.08096 5.07053 9.35217 5.36483 9.35217Z" fill="url(#paint52_linear_4047_1854)"/>
<g style="mix-blend-mode:multiply">
<path d="M7.21662 8.74266H6.60962V9.15405H7.0756C7.16144 9.04435 7.21662 8.90112 7.21662 8.74266Z" fill="#636363"/>
</g>
<g style="mix-blend-mode:multiply">
<path d="M7.22275 8.16675H6.60962V7.75536H7.22275V8.16675Z" fill="#636363"/>
</g>
<g style="mix-blend-mode:multiply">
<path d="M7.22275 7.1825H6.60962V6.77111H7.22275V7.1825Z" fill="#636363"/>
</g>
<g style="mix-blend-mode:multiply">
<path d="M7.28407 6.19507H6.60962V5.78368H7.28407V6.19507Z" fill="#636363"/>
</g>
<g style="mix-blend-mode:multiply">
<path d="M7.21662 5.20776H6.60962V4.79638H7.21662V5.20776Z" fill="#636363"/>
</g>
<g style="mix-blend-mode:multiply">
<path d="M7.21662 4.22046H6.60962V3.80907H7.21662V4.22046Z" fill="#636363"/>
</g>
<g style="mix-blend-mode:multiply">
<path d="M7.21662 3.23621H6.60962V2.82482H7.21662V3.23621Z" fill="#636363"/>
</g>
<g style="mix-blend-mode:multiply">
<path d="M5.50892 9.15405V8.74266H4.83447C4.83447 8.90112 4.88965 9.04435 4.97549 9.15405H5.50892Z" fill="#636363"/>
</g>
<g style="mix-blend-mode:multiply">
<path d="M5.50892 8.16675H4.83447V7.75536H5.50892V8.16675Z" fill="#636363"/>
</g>
<g style="mix-blend-mode:multiply">
<path d="M5.50892 7.1825H4.83447V6.77111H5.50892V7.1825Z" fill="#636363"/>
</g>
<g style="mix-blend-mode:multiply">
<path d="M5.50892 6.19507H4.83447V5.78368H5.50892V6.19507Z" fill="#636363"/>
</g>
<g style="mix-blend-mode:multiply">
<path d="M5.50892 5.20776H4.83447V4.79638H5.50892V5.20776Z" fill="#636363"/>
</g>
<g style="mix-blend-mode:multiply">
<path d="M5.50892 4.22046H4.83447V3.80907H5.50892V4.22046Z" fill="#636363"/>
</g>
<g style="mix-blend-mode:multiply">
<path d="M5.50892 3.23621H4.83447V2.82482H5.50892V3.23621Z" fill="#636363"/>
</g>
<g style="mix-blend-mode:multiply">
<path d="M6.36415 8.60559H5.6897V8.1942H6.36415V8.60559Z" fill="#636363"/>
</g>
<g style="mix-blend-mode:multiply">
<path d="M6.36415 7.62134H5.6897V7.20995H6.36415V7.62134Z" fill="#636363"/>
</g>
<g style="mix-blend-mode:multiply">
<path d="M6.36415 6.63403H5.6897V6.22264H6.36415V6.63403Z" fill="#636363"/>
</g>
<g style="mix-blend-mode:multiply">
<path d="M6.36415 5.64661H5.6897V5.23522H6.36415V5.64661Z" fill="#636363"/>
</g>
<g style="mix-blend-mode:multiply">
<path d="M6.36415 4.6593H5.6897V4.24791H6.36415V4.6593Z" fill="#636363"/>
</g>
<g style="mix-blend-mode:multiply">
<path d="M6.36415 3.67505H5.6897V3.26366H6.36415V3.67505Z" fill="#636363"/>
</g>
<g style="mix-blend-mode:screen">
<g style="mix-blend-mode:multiply">
<path d="M6.36415 9.15405H5.6897V8.74266H6.36415V9.15405Z" fill="#636363"/>
</g>
<g style="mix-blend-mode:multiply">
<path d="M6.36415 8.16675H5.6897V7.75536H6.36415V8.16675Z" fill="#636363"/>
</g>
<g style="mix-blend-mode:multiply">
<path d="M6.36415 7.1825H5.6897V6.77111H6.36415V7.1825Z" fill="#636363"/>
</g>
<g style="mix-blend-mode:multiply">
<path d="M6.36415 6.19507H5.6897V5.78368H6.36415V6.19507Z" fill="#636363"/>
</g>
<g style="mix-blend-mode:multiply">
<path d="M6.36415 5.20776H5.6897V4.79638H6.36415V5.20776Z" fill="#636363"/>
</g>
<g style="mix-blend-mode:multiply">
<path d="M6.36415 4.22046H5.6897V3.80907H6.36415V4.22046Z" fill="#636363"/>
</g>
<g style="mix-blend-mode:multiply">
<path d="M6.36415 3.23621H5.6897V2.82482H6.36415V3.23621Z" fill="#636363"/>
</g>
</g>
<g style="mix-blend-mode:screen">
<g style="mix-blend-mode:multiply">
<path d="M5.50892 8.60559H4.83447V8.1942H5.50892V8.60559Z" fill="#636363"/>
</g>
<g style="mix-blend-mode:multiply">
<path d="M5.50892 7.62134H4.83447V7.20995H5.50892V7.62134Z" fill="#636363"/>
</g>
<g style="mix-blend-mode:multiply">
<path d="M5.50892 6.63403H4.83447V6.22264H5.50892V6.63403Z" fill="#636363"/>
</g>
<g style="mix-blend-mode:multiply">
<path d="M5.50892 5.64661H4.83447V5.23522H5.50892V5.64661Z" fill="#636363"/>
</g>
<g style="mix-blend-mode:multiply">
<path d="M5.50892 4.6593H4.83447V4.24791H5.50892V4.6593Z" fill="#636363"/>
</g>
<g style="mix-blend-mode:multiply">
<path d="M5.50892 3.67505H4.83447V3.26366H5.50892V3.67505Z" fill="#636363"/>
</g>
</g>
<g style="mix-blend-mode:screen">
<g style="mix-blend-mode:multiply">
<path d="M7.22275 8.60559H6.60962V8.1942H7.22275V8.60559Z" fill="#636363"/>
</g>
<g style="mix-blend-mode:multiply">
<path d="M7.22275 7.62134H6.60962V7.20995H7.22275V7.62134Z" fill="#636363"/>
</g>
<g style="mix-blend-mode:multiply">
<path d="M7.22275 6.63403H6.60962V6.22264H7.22275V6.63403Z" fill="#636363"/>
</g>
<g style="mix-blend-mode:multiply">
<path d="M7.28407 5.64661H6.60962V5.23522H7.28407V5.64661Z" fill="#636363"/>
</g>
<g style="mix-blend-mode:multiply">
<path d="M7.21662 4.6593H6.60962V4.24791H7.21662V4.6593Z" fill="#636363"/>
</g>
<g style="mix-blend-mode:multiply">
<path d="M7.21662 3.67505H6.60962V3.26366H7.21662V3.67505Z" fill="#636363"/>
</g>
</g>
<path d="M8.48856 15.1085H6.36098L6.30273 16.8302H8.42725L8.48856 15.1085Z" fill="black"/>
<path d="M4.83428 18.939H4.6626V12.9297H4.83428V18.939Z" fill="black"/>
<path d="M2.82943 19.5485H4.15074C4.44198 19.5485 4.6811 19.2773 4.6811 18.939V13.0821C4.6811 12.7469 4.44198 12.4726 4.15074 12.4726H2.82943C2.53819 12.4726 2.29907 12.7469 2.29907 13.0821V18.939C2.29907 19.2773 2.53819 19.5485 2.82943 19.5485Z" fill="url(#paint53_linear_4047_1854)"/>
<g style="mix-blend-mode:multiply">
<path d="M4.68122 18.939H4.07422V19.3503H4.5402C4.62604 19.2406 4.68122 19.0974 4.68122 18.939Z" fill="#636363"/>
</g>
<g style="mix-blend-mode:multiply">
<path d="M4.74867 18.363H4.07422V17.9517H4.74867V18.363Z" fill="#636363"/>
</g>
<g style="mix-blend-mode:multiply">
<path d="M4.74867 17.3788H4.07422V16.9674H4.74867V17.3788Z" fill="#636363"/>
</g>
<g style="mix-blend-mode:multiply">
<path d="M4.74867 16.3914H4.07422V15.98H4.74867V16.3914Z" fill="#636363"/>
</g>
<g style="mix-blend-mode:multiply">
<path d="M4.74867 15.4041H4.07422V14.9927H4.74867V15.4041Z" fill="#636363"/>
</g>
<g style="mix-blend-mode:multiply">
<path d="M4.74867 14.4198H4.07422V14.0084H4.74867V14.4198Z" fill="#636363"/>
</g>
<g style="mix-blend-mode:multiply">
<path d="M4.74867 13.4325H4.07422V13.0211H4.74867V13.4325Z" fill="#636363"/>
</g>
<g style="mix-blend-mode:multiply">
<path d="M2.97352 19.3503V18.939H2.29907C2.29907 19.0974 2.35425 19.2406 2.44009 19.3503H2.97352Z" fill="#636363"/>
</g>
<g style="mix-blend-mode:multiply">
<path d="M2.97352 18.363H2.29907V17.9517H2.97352V18.363Z" fill="#636363"/>
</g>
<g style="mix-blend-mode:multiply">
<path d="M2.97352 17.3788H2.29907V16.9674H2.97352V17.3788Z" fill="#636363"/>
</g>
<g style="mix-blend-mode:multiply">
<path d="M2.97352 16.3914H2.29907V15.98H2.97352V16.3914Z" fill="#636363"/>
</g>
<g style="mix-blend-mode:multiply">
<path d="M2.97352 15.4041H2.29907V14.9927H2.97352V15.4041Z" fill="#636363"/>
</g>
<g style="mix-blend-mode:multiply">
<path d="M2.97352 14.4198H2.29907V14.0084H2.97352V14.4198Z" fill="#636363"/>
</g>
<g style="mix-blend-mode:multiply">
<path d="M2.97352 13.4325H2.29907V13.0211H2.97352V13.4325Z" fill="#636363"/>
</g>
<g style="mix-blend-mode:multiply">
<path d="M3.82582 18.8019H3.15137V18.3905H3.82582V18.8019Z" fill="#636363"/>
</g>
<g style="mix-blend-mode:multiply">
<path d="M3.82582 17.8176H3.15137V17.4062H3.82582V17.8176Z" fill="#636363"/>
</g>
<g style="mix-blend-mode:multiply">
<path d="M3.82582 16.8303H3.15137V16.4189H3.82582V16.8303Z" fill="#636363"/>
</g>
<g style="mix-blend-mode:multiply">
<path d="M3.82582 15.8429H3.15137V15.4315H3.82582V15.8429Z" fill="#636363"/>
</g>
<g style="mix-blend-mode:multiply">
<path d="M3.82582 14.8556H3.15137V14.4442H3.82582V14.8556Z" fill="#636363"/>
</g>
<g style="mix-blend-mode:multiply">
<path d="M3.82582 13.8713H3.15137V13.4599H3.82582V13.8713Z" fill="#636363"/>
</g>
<g style="mix-blend-mode:screen">
<g style="mix-blend-mode:multiply">
<path d="M3.82582 19.3503H3.15137V18.939H3.82582V19.3503Z" fill="#636363"/>
</g>
<g style="mix-blend-mode:multiply">
<path d="M3.82582 18.363H3.15137V17.9517H3.82582V18.363Z" fill="#636363"/>
</g>
<g style="mix-blend-mode:multiply">
<path d="M3.82582 17.3788H3.15137V16.9674H3.82582V17.3788Z" fill="#636363"/>
</g>
<g style="mix-blend-mode:multiply">
<path d="M3.82582 16.3914H3.15137V15.98H3.82582V16.3914Z" fill="#636363"/>
</g>
<g style="mix-blend-mode:multiply">
<path d="M3.82582 15.4041H3.15137V14.9927H3.82582V15.4041Z" fill="#636363"/>
</g>
<g style="mix-blend-mode:multiply">
<path d="M3.82582 14.4198H3.15137V14.0084H3.82582V14.4198Z" fill="#636363"/>
</g>
<g style="mix-blend-mode:multiply">
<path d="M3.82582 13.4325H3.15137V13.0211H3.82582V13.4325Z" fill="#636363"/>
</g>
</g>
<g style="mix-blend-mode:screen">
<g style="mix-blend-mode:multiply">
<path d="M2.97352 18.8019H2.29907V18.3905H2.97352V18.8019Z" fill="#636363"/>
</g>
<g style="mix-blend-mode:multiply">
<path d="M2.97352 17.8176H2.29907V17.4062H2.97352V17.8176Z" fill="#636363"/>
</g>
<g style="mix-blend-mode:multiply">
<path d="M2.97352 16.8303H2.29907V16.4189H2.97352V16.8303Z" fill="#636363"/>
</g>
<g style="mix-blend-mode:multiply">
<path d="M2.97352 15.8429H2.29907V15.4315H2.97352V15.8429Z" fill="#636363"/>
</g>
<g style="mix-blend-mode:multiply">
<path d="M2.97352 14.8556H2.29907V14.4442H2.97352V14.8556Z" fill="#636363"/>
</g>
<g style="mix-blend-mode:multiply">
<path d="M2.97352 13.8713H2.29907V13.4599H2.97352V13.8713Z" fill="#636363"/>
</g>
</g>
<g style="mix-blend-mode:screen">
<g style="mix-blend-mode:multiply">
<path d="M4.74867 18.8019H4.07422V18.3905H4.74867V18.8019Z" fill="#636363"/>
</g>
<g style="mix-blend-mode:multiply">
<path d="M4.74867 17.8176H4.07422V17.4062H4.74867V17.8176Z" fill="#636363"/>
</g>
<g style="mix-blend-mode:multiply">
<path d="M4.74867 16.8303H4.07422V16.4189H4.74867V16.8303Z" fill="#636363"/>
</g>
<g style="mix-blend-mode:multiply">
<path d="M4.74867 15.8429H4.07422V15.4315H4.74867V15.8429Z" fill="#636363"/>
</g>
<g style="mix-blend-mode:multiply">
<path d="M4.74867 14.8556H4.07422V14.4442H4.74867V14.8556Z" fill="#636363"/>
</g>
<g style="mix-blend-mode:multiply">
<path d="M4.74867 13.8713H4.07422V13.4599H4.74867V13.8713Z" fill="#636363"/>
</g>
</g>
<path d="M5.36483 19.5485H6.68614C6.98045 19.5485 7.2165 19.2773 7.2165 18.939V13.0821C7.2165 12.7469 6.98045 12.4726 6.68614 12.4726H5.36483C5.07053 12.4726 4.83447 12.7469 4.83447 13.0821V18.939C4.83447 19.2773 5.07053 19.5485 5.36483 19.5485Z" fill="url(#paint54_linear_4047_1854)"/>
<g style="mix-blend-mode:multiply">
<path d="M7.21662 18.939H6.60962V19.3503H7.0756C7.16144 19.2406 7.21662 19.0974 7.21662 18.939Z" fill="#636363"/>
</g>
<g style="mix-blend-mode:multiply">
<path d="M7.22275 18.363H6.60962V17.9517H7.22275V18.363Z" fill="#636363"/>
</g>
<g style="mix-blend-mode:multiply">
<path d="M7.22275 17.3788H6.60962V16.9674H7.22275V17.3788Z" fill="#636363"/>
</g>
<g style="mix-blend-mode:multiply">
<path d="M7.28407 16.3914H6.60962V15.98H7.28407V16.3914Z" fill="#636363"/>
</g>
<g style="mix-blend-mode:multiply">
<path d="M7.21662 15.4041H6.60962V14.9927H7.21662V15.4041Z" fill="#636363"/>
</g>
<g style="mix-blend-mode:multiply">
<path d="M7.21662 14.4198H6.60962V14.0084H7.21662V14.4198Z" fill="#636363"/>
</g>
<g style="mix-blend-mode:multiply">
<path d="M7.21662 13.4325H6.60962V13.0211H7.21662V13.4325Z" fill="#636363"/>
</g>
<g style="mix-blend-mode:multiply">
<path d="M5.50892 19.3503V18.939H4.83447C4.83447 19.0974 4.88965 19.2406 4.97549 19.3503H5.50892Z" fill="#636363"/>
</g>
<g style="mix-blend-mode:multiply">
<path d="M5.50892 18.363H4.83447V17.9517H5.50892V18.363Z" fill="#636363"/>
</g>
<g style="mix-blend-mode:multiply">
<path d="M5.50892 17.3788H4.83447V16.9674H5.50892V17.3788Z" fill="#636363"/>
</g>
<g style="mix-blend-mode:multiply">
<path d="M5.50892 16.3914H4.83447V15.98H5.50892V16.3914Z" fill="#636363"/>
</g>
<g style="mix-blend-mode:multiply">
<path d="M5.50892 15.4041H4.83447V14.9927H5.50892V15.4041Z" fill="#636363"/>
</g>
<g style="mix-blend-mode:multiply">
<path d="M5.50892 14.4198H4.83447V14.0084H5.50892V14.4198Z" fill="#636363"/>
</g>
<g style="mix-blend-mode:multiply">
<path d="M5.50892 13.4325H4.83447V13.0211H5.50892V13.4325Z" fill="#636363"/>
</g>
<g style="mix-blend-mode:multiply">
<path d="M6.36415 18.8019H5.6897V18.3905H6.36415V18.8019Z" fill="#636363"/>
</g>
<g style="mix-blend-mode:multiply">
<path d="M6.36415 17.8176H5.6897V17.4062H6.36415V17.8176Z" fill="#636363"/>
</g>
<g style="mix-blend-mode:multiply">
<path d="M6.36415 16.8303H5.6897V16.4189H6.36415V16.8303Z" fill="#636363"/>
</g>
<g style="mix-blend-mode:multiply">
<path d="M6.36415 15.8429H5.6897V15.4315H6.36415V15.8429Z" fill="#636363"/>
</g>
<g style="mix-blend-mode:multiply">
<path d="M6.36415 14.8556H5.6897V14.4442H6.36415V14.8556Z" fill="#636363"/>
</g>
<g style="mix-blend-mode:multiply">
<path d="M6.36415 13.8713H5.6897V13.4599H6.36415V13.8713Z" fill="#636363"/>
</g>
<g style="mix-blend-mode:screen">
<g style="mix-blend-mode:multiply">
<path d="M6.36415 19.3503H5.6897V18.939H6.36415V19.3503Z" fill="#636363"/>
</g>
<g style="mix-blend-mode:multiply">
<path d="M6.36415 18.363H5.6897V17.9517H6.36415V18.363Z" fill="#636363"/>
</g>
<g style="mix-blend-mode:multiply">
<path d="M6.36415 17.3788H5.6897V16.9674H6.36415V17.3788Z" fill="#636363"/>
</g>
<g style="mix-blend-mode:multiply">
<path d="M6.36415 16.3914H5.6897V15.98H6.36415V16.3914Z" fill="#636363"/>
</g>
<g style="mix-blend-mode:multiply">
<path d="M6.36415 15.4041H5.6897V14.9927H6.36415V15.4041Z" fill="#636363"/>
</g>
<g style="mix-blend-mode:multiply">
<path d="M6.36415 14.4198H5.6897V14.0084H6.36415V14.4198Z" fill="#636363"/>
</g>
<g style="mix-blend-mode:multiply">
<path d="M6.36415 13.4325H5.6897V13.0211H6.36415V13.4325Z" fill="#636363"/>
</g>
</g>
<g style="mix-blend-mode:screen">
<g style="mix-blend-mode:multiply">
<path d="M5.50892 18.8019H4.83447V18.3905H5.50892V18.8019Z" fill="#636363"/>
</g>
<g style="mix-blend-mode:multiply">
<path d="M5.50892 17.8176H4.83447V17.4062H5.50892V17.8176Z" fill="#636363"/>
</g>
<g style="mix-blend-mode:multiply">
<path d="M5.50892 16.8303H4.83447V16.4189H5.50892V16.8303Z" fill="#636363"/>
</g>
<g style="mix-blend-mode:multiply">
<path d="M5.50892 15.8429H4.83447V15.4315H5.50892V15.8429Z" fill="#636363"/>
</g>
<g style="mix-blend-mode:multiply">
<path d="M5.50892 14.8556H4.83447V14.4442H5.50892V14.8556Z" fill="#636363"/>
</g>
<g style="mix-blend-mode:multiply">
<path d="M5.50892 13.8713H4.83447V13.4599H5.50892V13.8713Z" fill="#636363"/>
</g>
</g>
<g style="mix-blend-mode:screen">
<g style="mix-blend-mode:multiply">
<path d="M7.22275 18.8019H6.60962V18.3905H7.22275V18.8019Z" fill="#636363"/>
</g>
<g style="mix-blend-mode:multiply">
<path d="M7.22275 17.8176H6.60962V17.4062H7.22275V17.8176Z" fill="#636363"/>
</g>
<g style="mix-blend-mode:multiply">
<path d="M7.22275 16.8303H6.60962V16.4189H7.22275V16.8303Z" fill="#636363"/>
</g>
<g style="mix-blend-mode:multiply">
<path d="M7.28407 15.8429H6.60962V15.4315H7.28407V15.8429Z" fill="#636363"/>
</g>
<g style="mix-blend-mode:multiply">
<path d="M7.21662 14.8556H6.60962V14.4442H7.21662V14.8556Z" fill="#636363"/>
</g>
<g style="mix-blend-mode:multiply">
<path d="M7.21662 13.8713H6.60962V13.4599H7.21662V13.8713Z" fill="#636363"/>
</g>
</g>
<path d="M15.9138 18.8202H9.97559V17.8329H15.9138V18.8202Z" fill="url(#paint55_linear_4047_1854)"/>
<path d="M15.9138 16.9979H9.97559V16.0106H15.9138V16.9979Z" fill="url(#paint56_linear_4047_1854)"/>
<path d="M15.9138 15.1757H9.97559V14.1883H15.9138V15.1757Z" fill="url(#paint57_linear_4047_1854)"/>
<path d="M15.9138 13.3533H9.97559V12.3659H15.9138V13.3533Z" fill="url(#paint58_linear_4047_1854)"/>
<path d="M15.9138 11.531H9.97559V10.5437H15.9138V11.531Z" fill="url(#paint59_linear_4047_1854)"/>
<path d="M15.9138 9.70874H9.97559V8.72141H15.9138V9.70874Z" fill="url(#paint60_linear_4047_1854)"/>
<path d="M15.9138 7.88647H9.97559V6.89914H15.9138V7.88647Z" fill="url(#paint61_linear_4047_1854)"/>
<path d="M15.9138 6.06409H9.97559V5.07676H15.9138V6.06409Z" fill="url(#paint62_linear_4047_1854)"/>
<path d="M21.8796 23.3821H17.9954V23.0926H21.8796V23.3821Z" fill="url(#paint63_linear_4047_1854)"/>
<path d="M7.85418 23.3821H3.96997V23.0926H7.85418V23.3821Z" fill="url(#paint64_linear_4047_1854)"/>
<path d="M20.2885 44.7985C17.4742 45.9565 14.3319 46.5629 11.0547 46.4745C11.0547 46.6025 11.0547 46.7305 11.0578 46.8585C14.3871 46.9438 17.5784 46.3283 20.4387 45.149C20.3897 45.0332 20.3376 44.9143 20.2885 44.7955V44.7985Z" fill="black"/>
<path d="M14.4515 46.4502C14.4515 46.2216 13.4337 46.0358 12.1799 46.0358C10.926 46.0358 9.9082 46.2216 9.9082 46.4502C9.9082 46.6787 10.926 46.8646 12.1799 46.8646C13.4337 46.8646 14.4515 46.6787 14.4515 46.4502Z" fill="black"/>
<path d="M9.65668 1.9624H8.54077V1.51445H9.65668V1.9624Z" fill="#BE1E2D"/>
<path d="M17.3486 1.9624H16.2327V1.51445H17.3486V1.9624Z" fill="#BE1E2D"/>
<path d="M17.0543 56.4027H8.96704L9.69667 57H16.3247L17.0543 56.4027Z" fill="url(#paint65_linear_4047_1854)"/>
<path d="M22.9465 29.0226H3.05029V-3.05176e-05H22.9465V29.0226Z" fill="url(#paint66_linear_4047_1854)"/>
<path d="M23.9154 30.9485H2.08472L3.05347 29.0226H22.9466L23.9154 30.9485Z" fill="url(#paint67_linear_4047_1854)"/>
<path d="M23.9154 36.135H2.08472V30.9454H23.9154V36.135Z" fill="url(#paint68_linear_4047_1854)"/>
<path d="M12.7502 28.407C9.74893 28.3583 6.74764 28.3826 3.74634 28.3887V0.822727H22.2538V28.3613C19.087 28.602 15.9232 28.4558 12.7502 28.407Z" fill="#D48600"/>
<path d="M22.729 37.8049H3.27113L2.08472 36.135H23.9154L22.729 37.8049Z" fill="url(#paint69_linear_4047_1854)"/>
<path style="mix-blend-mode:multiply" d="M21.4261 39.1976H4.81934V37.805H21.4261V39.1976Z" fill="url(#paint70_linear_4047_1854)"/>
<path d="M23.1796 31.4026H2.81738L3.74628 28.3857L22.2538 28.3614L23.1796 31.4026Z" fill="url(#paint71_linear_4047_1854)"/>
<g style="mix-blend-mode:multiply">
<path d="M20.6014 28.34H5.38029V27.9043C5.38029 28.0597 5.38029 28.209 5.38029 28.34L2.81738 31.4056L3.74322 28.3644H3.74628V0.822798H22.2323L22.2538 28.3644L23.1796 31.4056L20.6014 28.34ZM20.1691 3.84878H5.81255C6.1743 11.8724 5.54583 21.959 5.40481 26.6549H20.583C20.4542 21.9529 19.8043 11.8602 20.1691 3.84878ZM20.7209 28.337H20.6228L21.5671 28.3492C21.3862 28.3431 21.239 28.3339 20.724 28.337H20.7209Z" fill="#D6D6D6"/>
</g>
</g>
<defs>
<linearGradient id="paint0_linear_4047_1854" x1="22.1403" y1="52.6179" x2="22.1403" y2="45.4994" gradientUnits="userSpaceOnUse">
<stop stop-color="#3B3B3B"/>
<stop offset="0.35" stop-color="#9C9C9C"/>
<stop offset="0.67" stop-color="#262626"/>
<stop offset="1" stop-color="#1B1C1C"/>
</linearGradient>
<linearGradient id="paint1_linear_4047_1854" x1="19.2063" y1="-41.6324" x2="19.2063" y2="-41.6324" gradientUnits="userSpaceOnUse">
<stop stop-color="#3B3B3B"/>
<stop offset="0.35" stop-color="#9C9C9C"/>
<stop offset="0.67" stop-color="#262626"/>
<stop offset="1" stop-color="#1B1C1C"/>
</linearGradient>
<linearGradient id="paint2_linear_4047_1854" x1="3.81364" y1="52.6179" x2="3.81364" y2="45.4994" gradientUnits="userSpaceOnUse">
<stop stop-color="#3B3B3B"/>
<stop offset="0.35" stop-color="#9C9C9C"/>
<stop offset="0.67" stop-color="#262626"/>
<stop offset="1" stop-color="#1B1C1C"/>
</linearGradient>
<linearGradient id="paint3_linear_4047_1854" x1="6.74747" y1="52.6179" x2="6.74747" y2="45.4994" gradientUnits="userSpaceOnUse">
<stop stop-color="#3B3B3B"/>
<stop offset="0.35" stop-color="#9C9C9C"/>
<stop offset="0.67" stop-color="#262626"/>
<stop offset="1" stop-color="#1B1C1C"/>
</linearGradient>
<linearGradient id="paint4_linear_4047_1854" x1="19.9359" y1="26.9778" x2="19.9359" y2="22.2575" gradientUnits="userSpaceOnUse">
<stop stop-color="#1B1C1C"/>
<stop offset="0.71" stop-color="#262626"/>
<stop offset="1" stop-color="#9C9C9C"/>
</linearGradient>
<linearGradient id="paint5_linear_4047_1854" x1="5.91054" y1="-41.6325" x2="5.91054" y2="-41.6325" gradientUnits="userSpaceOnUse">
<stop stop-color="#1B1C1C"/>
<stop offset="0.71" stop-color="#262626"/>
<stop offset="1" stop-color="#9C9C9C"/>
</linearGradient>
<linearGradient id="paint6_linear_4047_1854" x1="-1.33359" y1="24.1622" x2="15.2132" y2="11.2245" gradientUnits="userSpaceOnUse">
<stop stop-color="#949494"/>
<stop offset="1"/>
</linearGradient>
<linearGradient id="paint7_linear_4047_1854" x1="0.395422" y1="22.8244" x2="14.9403" y2="11.4555" gradientUnits="userSpaceOnUse">
<stop stop-color="#D6D6D6"/>
<stop offset="1"/>
</linearGradient>
<linearGradient id="paint8_linear_4047_1854" x1="13.0751" y1="24.604" x2="13.0751" y2="20.2311" gradientUnits="userSpaceOnUse">
<stop/>
<stop offset="1" stop-color="#949494"/>
</linearGradient>
<linearGradient id="paint9_linear_4047_1854" x1="3.14844" y1="40.2916" x2="22.7688" y2="40.2916" gradientUnits="userSpaceOnUse">
<stop stop-color="#FCE69C"/>
<stop offset="0.22" stop-color="#F8B902"/>
<stop offset="0.77" stop-color="#F09E08"/>
<stop offset="1" stop-color="#C27500"/>
</linearGradient>
<linearGradient id="paint10_linear_4047_1854" x1="12.9585" y1="56.3631" x2="12.9585" y2="43.2444" gradientUnits="userSpaceOnUse">
<stop stop-color="#F5A300"/>
<stop offset="0.18" stop-color="#F6AC01"/>
<stop offset="0.41" stop-color="#F7B403"/>
<stop offset="1" stop-color="#BF5409"/>
</linearGradient>
<radialGradient id="paint11_radial_4047_1854" cx="0" cy="0" r="1" gradientTransform="matrix(0.69285 0.0917699 0.944155 -7.04311 18.7335 47.5792)" gradientUnits="userSpaceOnUse">
<stop stop-color="#828282"/>
<stop offset="0.18" stop-color="#A2A2A2"/>
<stop offset="0.43" stop-color="#CACACA"/>
<stop offset="0.66" stop-color="#E7E7E7"/>
<stop offset="0.85" stop-color="#F8F8F8"/>
<stop offset="1" stop-color="white"/>
</radialGradient>
<radialGradient id="paint12_radial_4047_1854" cx="0" cy="0" r="1" gradientTransform="matrix(0.711083 0.0941849 0.969002 -7.22845 18.0768 51.5951)" gradientUnits="userSpaceOnUse">
<stop stop-color="#828282"/>
<stop offset="0.18" stop-color="#A2A2A2"/>
<stop offset="0.43" stop-color="#CACACA"/>
<stop offset="0.66" stop-color="#E7E7E7"/>
<stop offset="0.85" stop-color="#F8F8F8"/>
<stop offset="1" stop-color="white"/>
</radialGradient>
<radialGradient id="paint13_radial_4047_1854" cx="0" cy="0" r="1" gradientTransform="matrix(0.69285 0.0917699 0.944155 -7.04311 18.9612 45.4637)" gradientUnits="userSpaceOnUse">
<stop stop-color="#828282"/>
<stop offset="0.18" stop-color="#A2A2A2"/>
<stop offset="0.43" stop-color="#CACACA"/>
<stop offset="0.66" stop-color="#E7E7E7"/>
<stop offset="0.85" stop-color="#F8F8F8"/>
<stop offset="1" stop-color="white"/>
</radialGradient>
<linearGradient id="paint14_linear_4047_1854" x1="20.1936" y1="51.2284" x2="25.5128" y2="46.6197" gradientUnits="userSpaceOnUse">
<stop stop-color="#949494"/>
<stop offset="1"/>
</linearGradient>
<linearGradient id="paint15_linear_4047_1854" x1="5.68069" y1="51.2132" x2="0.404237" y2="46.6413" gradientUnits="userSpaceOnUse">
<stop stop-color="#949494"/>
<stop offset="1"/>
</linearGradient>
<linearGradient id="paint16_linear_4047_1854" x1="2.36053" y1="52.8435" x2="6.55065" y2="49.5707" gradientUnits="userSpaceOnUse">
<stop stop-color="#949494"/>
<stop offset="1"/>
</linearGradient>
<linearGradient id="paint17_linear_4047_1854" x1="3.14844" y1="54.0746" x2="22.7688" y2="54.0746" gradientUnits="userSpaceOnUse">
<stop stop-color="#363B39"/>
<stop offset="1" stop-color="#1B1C1C"/>
</linearGradient>
<linearGradient id="paint18_linear_4047_1854" x1="7.58133" y1="51.1217" x2="18.3357" y2="51.1217" gradientUnits="userSpaceOnUse">
<stop stop-color="#D2A60E"/>
<stop offset="0.02" stop-color="#DEB52B"/>
<stop offset="0.03" stop-color="#E8C142"/>
<stop offset="0.05" stop-color="#F0CB54"/>
<stop offset="0.07" stop-color="#F5D261"/>
<stop offset="0.1" stop-color="#F9D568"/>
<stop offset="0.16" stop-color="#FAD76B"/>
<stop offset="0.19" stop-color="#F8D163"/>
<stop offset="0.3" stop-color="#F5BF4A"/>
<stop offset="0.4" stop-color="#F2B43A"/>
<stop offset="0.47" stop-color="#F2B135"/>
<stop offset="0.56" stop-color="#ECAB30"/>
<stop offset="0.67" stop-color="#DE9A22"/>
<stop offset="0.8" stop-color="#C57F0C"/>
<stop offset="0.86" stop-color="#B87000"/>
<stop offset="1" stop-color="#543304"/>
</linearGradient>
<linearGradient id="paint19_linear_4047_1854" x1="22.1862" y1="53.0324" x2="22.7104" y2="53.0324" gradientUnits="userSpaceOnUse">
<stop stop-color="#F7F7F7"/>
<stop offset="1" stop-color="#DBDBDB"/>
</linearGradient>
<linearGradient id="paint20_linear_4047_1854" x1="3.12996" y1="53.0355" x2="3.66339" y2="53.0355" gradientUnits="userSpaceOnUse">
<stop stop-color="#F7F7F7"/>
<stop offset="1" stop-color="#DBDBDB"/>
</linearGradient>
<linearGradient id="paint21_linear_4047_1854" x1="8.80751" y1="55.6073" x2="17.1002" y2="55.6073" gradientUnits="userSpaceOnUse">
<stop stop-color="white"/>
<stop offset="1" stop-color="#D6D6D6"/>
</linearGradient>
<linearGradient id="paint22_linear_4047_1854" x1="5.06751" y1="43.2353" x2="2.83569" y2="43.2353" gradientUnits="userSpaceOnUse">
<stop stop-color="#C67801"/>
<stop offset="1" stop-color="#FBDF83"/>
</linearGradient>
<linearGradient id="paint23_linear_4047_1854" x1="20.8803" y1="43.2353" x2="23.0876" y2="43.2353" gradientUnits="userSpaceOnUse">
<stop stop-color="#ED940A"/>
<stop offset="1" stop-color="#C67801"/>
</linearGradient>
<linearGradient id="paint24_linear_4047_1854" x1="4.50342" y1="43.6436" x2="21.4137" y2="43.6436" gradientUnits="userSpaceOnUse">
<stop stop-color="#363B39"/>
<stop offset="1" stop-color="#1B1C1C"/>
</linearGradient>
<linearGradient id="paint25_linear_4047_1854" x1="12.9433" y1="27.9499" x2="12.9433" y2="23.766" gradientUnits="userSpaceOnUse">
<stop stop-color="#F8B902"/>
<stop offset="1" stop-color="#C27500"/>
</linearGradient>
<linearGradient id="paint26_linear_4047_1854" x1="22.5128" y1="44.6881" x2="24.2623" y2="40.6676" gradientUnits="userSpaceOnUse">
<stop stop-color="#363B39"/>
<stop offset="1" stop-color="#1B1C1C"/>
</linearGradient>
<linearGradient id="paint27_linear_4047_1854" x1="22.9588" y1="43.5339" x2="25.9999" y2="43.5339" gradientUnits="userSpaceOnUse">
<stop stop-color="#EC920A"/>
<stop offset="1" stop-color="#FCC400"/>
</linearGradient>
<linearGradient id="paint28_linear_4047_1854" x1="22.9404" y1="43.1347" x2="25.9846" y2="43.1347" gradientUnits="userSpaceOnUse">
<stop stop-color="#363B39"/>
<stop offset="1" stop-color="#1B1C1C"/>
</linearGradient>
<linearGradient id="paint29_linear_4047_1854" x1="3.49387" y1="44.6699" x2="1.74746" y2="40.6496" gradientUnits="userSpaceOnUse">
<stop stop-color="#363B39"/>
<stop offset="1" stop-color="#1B1C1C"/>
</linearGradient>
<linearGradient id="paint30_linear_4047_1854" x1="3.04106" y1="-41.6325" x2="-9.35353e-05" y2="-41.6325" gradientUnits="userSpaceOnUse">
<stop stop-color="#EC920A"/>
<stop offset="1" stop-color="#FCC400"/>
</linearGradient>
<linearGradient id="paint31_linear_4047_1854" x1="3.05935" y1="43.1347" x2="0.0151336" y2="43.1347" gradientUnits="userSpaceOnUse">
<stop stop-color="#363B39"/>
<stop offset="1" stop-color="#1B1C1C"/>
</linearGradient>
<linearGradient id="paint32_linear_4047_1854" x1="4.42981" y1="33.5113" x2="21.4014" y2="33.5113" gradientUnits="userSpaceOnUse">
<stop stop-color="#FCC400"/>
<stop offset="1" stop-color="#EC920A"/>
</linearGradient>
<linearGradient id="paint33_linear_4047_1854" x1="20.8526" y1="54.2696" x2="21.1496" y2="55.6295" gradientUnits="userSpaceOnUse">
<stop stop-color="white"/>
<stop offset="1" stop-color="#363B39"/>
</linearGradient>
<linearGradient id="paint34_linear_4047_1854" x1="19.5957" y1="54.8121" x2="22.3119" y2="54.8121" gradientUnits="userSpaceOnUse">
<stop stop-color="#F7F7F7"/>
<stop offset="1" stop-color="#DBDBDB"/>
</linearGradient>
<linearGradient id="paint35_linear_4047_1854" x1="5.04283" y1="54.2696" x2="4.74582" y2="55.6295" gradientUnits="userSpaceOnUse">
<stop stop-color="white"/>
<stop offset="1" stop-color="#363B39"/>
</linearGradient>
<linearGradient id="paint36_linear_4047_1854" x1="6.30286" y1="54.8121" x2="3.5836" y2="54.8121" gradientUnits="userSpaceOnUse">
<stop stop-color="#F7F7F7"/>
<stop offset="1" stop-color="#DBDBDB"/>
</linearGradient>
<linearGradient id="paint37_linear_4047_1854" x1="7.59668" y1="43.6436" x2="21.4137" y2="43.6436" gradientUnits="userSpaceOnUse">
<stop stop-color="#363B39"/>
<stop offset="1"/>
</linearGradient>
<linearGradient id="paint38_linear_4047_1854" x1="21.7172" y1="39.6516" x2="21.7172" y2="29.7296" gradientUnits="userSpaceOnUse">
<stop stop-color="#363B39"/>
<stop offset="1" stop-color="#1B1C1C"/>
</linearGradient>
<linearGradient id="paint39_linear_4047_1854" x1="20.9324" y1="33.6423" x2="22.4499" y2="33.6423" gradientUnits="userSpaceOnUse">
<stop stop-color="#363B39"/>
<stop offset="1"/>
</linearGradient>
<linearGradient id="paint40_linear_4047_1854" x1="4.19378" y1="39.5206" x2="4.19378" y2="29.7449" gradientUnits="userSpaceOnUse">
<stop stop-color="#6E6E6E"/>
<stop offset="1" stop-color="#1B1C1C"/>
</linearGradient>
<linearGradient id="paint41_linear_4047_1854" x1="4.98159" y1="33.423" x2="3.52846" y2="33.423" gradientUnits="userSpaceOnUse">
<stop stop-color="#363B39"/>
<stop offset="1"/>
</linearGradient>
<linearGradient id="paint42_linear_4047_1854" x1="20.9324" y1="29.1841" x2="22.2935" y2="29.1841" gradientUnits="userSpaceOnUse">
<stop stop-color="#363B39"/>
<stop offset="1"/>
</linearGradient>
<linearGradient id="paint43_linear_4047_1854" x1="4.91419" y1="29.1841" x2="3.62047" y2="29.1841" gradientUnits="userSpaceOnUse">
<stop stop-color="#737373"/>
<stop offset="1"/>
</linearGradient>
<linearGradient id="paint44_linear_4047_1854" x1="12.98" y1="39.3195" x2="12.98" y2="27.1364" gradientUnits="userSpaceOnUse">
<stop stop-color="#808080"/>
<stop offset="1" stop-color="#303030"/>
</linearGradient>
<linearGradient id="paint45_linear_4047_1854" x1="6.6738" y1="39.6486" x2="22.0884" y2="26.292" gradientUnits="userSpaceOnUse">
<stop stop-color="#949494"/>
<stop offset="1"/>
</linearGradient>
<linearGradient id="paint46_linear_4047_1854" x1="9.52815" y1="4.15039" x2="13.4863" y2="1.05565" gradientUnits="userSpaceOnUse">
<stop stop-color="#949494"/>
<stop offset="1"/>
</linearGradient>
<linearGradient id="paint47_linear_4047_1854" x1="22.404" y1="9.34303" x2="22.404" y2="2.22451" gradientUnits="userSpaceOnUse">
<stop stop-color="#3B3B3B"/>
<stop offset="0.35" stop-color="#9C9C9C"/>
<stop offset="0.67" stop-color="#262626"/>
<stop offset="1" stop-color="#1B1C1C"/>
</linearGradient>
<linearGradient id="paint48_linear_4047_1854" x1="19.8655" y1="9.34303" x2="19.8655" y2="2.22451" gradientUnits="userSpaceOnUse">
<stop stop-color="#3B3B3B"/>
<stop offset="0.35" stop-color="#9C9C9C"/>
<stop offset="0.67" stop-color="#262626"/>
<stop offset="1" stop-color="#1B1C1C"/>
</linearGradient>
<linearGradient id="paint49_linear_4047_1854" x1="22.404" y1="19.713" x2="22.404" y2="12.5945" gradientUnits="userSpaceOnUse">
<stop stop-color="#3B3B3B"/>
<stop offset="0.35" stop-color="#9C9C9C"/>
<stop offset="0.67" stop-color="#262626"/>
<stop offset="1" stop-color="#1B1C1C"/>
</linearGradient>
<linearGradient id="paint50_linear_4047_1854" x1="19.8655" y1="19.713" x2="19.8655" y2="12.5945" gradientUnits="userSpaceOnUse">
<stop stop-color="#3B3B3B"/>
<stop offset="0.35" stop-color="#9C9C9C"/>
<stop offset="0.67" stop-color="#262626"/>
<stop offset="1" stop-color="#1B1C1C"/>
</linearGradient>
<linearGradient id="paint51_linear_4047_1854" x1="3.48855" y1="9.34303" x2="3.48855" y2="2.22451" gradientUnits="userSpaceOnUse">
<stop stop-color="#3B3B3B"/>
<stop offset="0.35" stop-color="#9C9C9C"/>
<stop offset="0.67" stop-color="#262626"/>
<stop offset="1" stop-color="#1B1C1C"/>
</linearGradient>
<linearGradient id="paint52_linear_4047_1854" x1="6.02395" y1="9.34303" x2="6.02395" y2="2.22451" gradientUnits="userSpaceOnUse">
<stop stop-color="#3B3B3B"/>
<stop offset="0.35" stop-color="#9C9C9C"/>
<stop offset="0.67" stop-color="#262626"/>
<stop offset="1" stop-color="#1B1C1C"/>
</linearGradient>
<linearGradient id="paint53_linear_4047_1854" x1="3.48855" y1="19.5393" x2="3.48855" y2="12.4208" gradientUnits="userSpaceOnUse">
<stop stop-color="#3B3B3B"/>
<stop offset="0.35" stop-color="#9C9C9C"/>
<stop offset="0.67" stop-color="#262626"/>
<stop offset="1" stop-color="#1B1C1C"/>
</linearGradient>
<linearGradient id="paint54_linear_4047_1854" x1="6.02395" y1="19.5393" x2="6.02395" y2="12.4208" gradientUnits="userSpaceOnUse">
<stop stop-color="#3B3B3B"/>
<stop offset="0.35" stop-color="#9C9C9C"/>
<stop offset="0.67" stop-color="#262626"/>
<stop offset="1" stop-color="#1B1C1C"/>
</linearGradient>
<linearGradient id="paint55_linear_4047_1854" x1="12.9432" y1="18.8171" x2="12.9432" y2="17.8359" gradientUnits="userSpaceOnUse">
<stop/>
<stop offset="0.13" stop-color="#060606"/>
<stop offset="0.31" stop-color="#181818"/>
<stop offset="0.52" stop-color="#363636"/>
<stop offset="0.75" stop-color="#5F5F5F"/>
<stop offset="1" stop-color="#949494"/>
</linearGradient>
<linearGradient id="paint56_linear_4047_1854" x1="-0.000123268" y1="16.9949" x2="0.3031" y2="16.0126" gradientUnits="userSpaceOnUse">
<stop/>
<stop offset="0.13" stop-color="#060606"/>
<stop offset="0.31" stop-color="#181818"/>
<stop offset="0.52" stop-color="#363636"/>
<stop offset="0.75" stop-color="#5F5F5F"/>
<stop offset="1" stop-color="#949494"/>
</linearGradient>
<linearGradient id="paint57_linear_4047_1854" x1="-0.000123268" y1="15.1726" x2="0.303102" y2="14.1903" gradientUnits="userSpaceOnUse">
<stop/>
<stop offset="0.13" stop-color="#060606"/>
<stop offset="0.31" stop-color="#181818"/>
<stop offset="0.52" stop-color="#363636"/>
<stop offset="0.75" stop-color="#5F5F5F"/>
<stop offset="1" stop-color="#949494"/>
</linearGradient>
<linearGradient id="paint58_linear_4047_1854" x1="-0.000123268" y1="13.3502" x2="0.303102" y2="12.368" gradientUnits="userSpaceOnUse">
<stop/>
<stop offset="0.13" stop-color="#060606"/>
<stop offset="0.31" stop-color="#181818"/>
<stop offset="0.52" stop-color="#363636"/>
<stop offset="0.75" stop-color="#5F5F5F"/>
<stop offset="1" stop-color="#949494"/>
</linearGradient>
<linearGradient id="paint59_linear_4047_1854" x1="-0.000123268" y1="11.528" x2="0.3031" y2="10.5457" gradientUnits="userSpaceOnUse">
<stop/>
<stop offset="0.13" stop-color="#060606"/>
<stop offset="0.31" stop-color="#181818"/>
<stop offset="0.52" stop-color="#363636"/>
<stop offset="0.75" stop-color="#5F5F5F"/>
<stop offset="1" stop-color="#949494"/>
</linearGradient>
<linearGradient id="paint60_linear_4047_1854" x1="-0.000123268" y1="9.70569" x2="0.3031" y2="8.72343" gradientUnits="userSpaceOnUse">
<stop/>
<stop offset="0.13" stop-color="#060606"/>
<stop offset="0.31" stop-color="#181818"/>
<stop offset="0.52" stop-color="#363636"/>
<stop offset="0.75" stop-color="#5F5F5F"/>
<stop offset="1" stop-color="#949494"/>
</linearGradient>
<linearGradient id="paint61_linear_4047_1854" x1="-0.000123268" y1="7.88343" x2="0.303102" y2="6.90116" gradientUnits="userSpaceOnUse">
<stop/>
<stop offset="0.13" stop-color="#060606"/>
<stop offset="0.31" stop-color="#181818"/>
<stop offset="0.52" stop-color="#363636"/>
<stop offset="0.75" stop-color="#5F5F5F"/>
<stop offset="1" stop-color="#949494"/>
</linearGradient>
<linearGradient id="paint62_linear_4047_1854" x1="-0.000123268" y1="6.06104" x2="0.303102" y2="5.07877" gradientUnits="userSpaceOnUse">
<stop/>
<stop offset="0.13" stop-color="#060606"/>
<stop offset="0.31" stop-color="#181818"/>
<stop offset="0.52" stop-color="#363636"/>
<stop offset="0.75" stop-color="#5F5F5F"/>
<stop offset="1" stop-color="#949494"/>
</linearGradient>
<linearGradient id="paint63_linear_4047_1854" x1="18.0536" y1="23.2358" x2="21.9838" y2="23.2358" gradientUnits="userSpaceOnUse">
<stop/>
<stop offset="1" stop-color="#474747"/>
</linearGradient>
<linearGradient id="paint64_linear_4047_1854" x1="4.02822" y1="-41.6321" x2="7.95842" y2="-41.6321" gradientUnits="userSpaceOnUse">
<stop/>
<stop offset="1" stop-color="#474747"/>
</linearGradient>
<linearGradient id="paint65_linear_4047_1854" x1="8.96704" y1="56.6983" x2="17.0543" y2="56.6983" gradientUnits="userSpaceOnUse">
<stop stop-color="#363B39"/>
<stop offset="1" stop-color="#1B1C1C"/>
</linearGradient>
<linearGradient id="paint66_linear_4047_1854" x1="10.7697" y1="14.5113" x2="23.3727" y2="14.5113" gradientUnits="userSpaceOnUse">
<stop stop-color="#FCC400"/>
<stop offset="1" stop-color="#EC920A"/>
</linearGradient>
<linearGradient id="paint67_linear_4047_1854" x1="10.5521" y1="29.9855" x2="24.3814" y2="29.9855" gradientUnits="userSpaceOnUse">
<stop stop-color="#FCC400"/>
<stop offset="1" stop-color="#EC920A"/>
</linearGradient>
<linearGradient id="paint68_linear_4047_1854" x1="10.5521" y1="33.5417" x2="24.3814" y2="33.5417" gradientUnits="userSpaceOnUse">
<stop stop-color="#FCC400"/>
<stop offset="1" stop-color="#EC920A"/>
</linearGradient>
<linearGradient id="paint69_linear_4047_1854" x1="10.5521" y1="36.97" x2="24.3814" y2="36.97" gradientUnits="userSpaceOnUse">
<stop stop-color="#FCC400"/>
<stop offset="1" stop-color="#EC920A"/>
</linearGradient>
<linearGradient id="paint70_linear_4047_1854" x1="13.1243" y1="37.7136" x2="13.1243" y2="39.2372" gradientUnits="userSpaceOnUse">
<stop stop-color="#B8B8B8"/>
<stop offset="1" stop-color="white"/>
</linearGradient>
<linearGradient id="paint71_linear_4047_1854" x1="12.9985" y1="31.4361" x2="12.9985" y2="28.2821" gradientUnits="userSpaceOnUse">
<stop stop-color="#D79936"/>
<stop offset="1" stop-color="#D48600"/>
</linearGradient>
<clipPath id="clip0_4047_1854">
<rect width="26" height="57" fill="white" transform="matrix(1 0 0 -1 0 57)"/>
</clipPath>
</defs>
</svg>
